<svg width="40" height="36" viewBox="0 0 40 36" fill="none" xmlns="http://www.w3.org/2000/svg">
<path d="M39.8682 11.1909L34.8682 1.19094C34.6563 0.767188 34.2238 0.5 33.7501 0.5H6.25007C5.77632 0.5 5.34382 0.767188 5.13195 1.19094L0.131947 11.1909C-0.0902409 11.6353 -0.0280534 12.1687 0.290072 12.5503L19.0401 35.0503C19.2776 35.3353 19.6291 35.5 20.0001 35.5C20.371 35.5 20.7229 35.3353 20.9601 35.0503L39.7101 12.5503C40.0282 12.1687 40.0904 11.6353 39.8682 11.1909ZM36.7273 10.5H29.5229L25.7729 3H32.9776L36.7273 10.5ZM10.3948 13L16.0613 27.5709L3.91882 13H10.3948ZM26.9226 13L20.0001 30.8009L13.0776 13H26.9226ZM13.2729 10.5L17.0229 3H22.9776L26.7276 10.5H13.2729ZM29.6054 13H36.0813L23.9388 27.5709L29.6054 13ZM7.02288 3H14.2276L10.4776 10.5H3.27288L7.02288 3Z" fill="#2A49EA"/>
</svg>
