<svg width="32" height="32" viewBox="0 0 32 32" fill="none" xmlns="http://www.w3.org/2000/svg">
<rect width="32" height="32" rx="8" fill="#1877F2"/>
<path fill-rule="evenodd" clip-rule="evenodd" d="M14.1831 22.8236C14.1831 22.921 14.2621 23 14.3595 23H16.8732C16.9705 23 17.0493 22.921 17.0493 22.8236V15.9448H18.8717C18.963 15.9448 19.0393 15.8745 19.0473 15.7834L19.2225 13.7108C19.231 13.608 19.1501 13.5196 19.0467 13.5196H17.0493V12.0494C17.0493 11.7046 17.3287 11.4251 17.6732 11.4251H19.0776C19.1752 11.4251 19.254 11.3461 19.254 11.2487V9.17637C19.254 9.07902 19.1752 9 19.0776 9H16.7047C15.3121 9 14.1831 10.1287 14.1831 11.5214V13.5196H12.9264C12.829 13.5196 12.75 13.5987 12.75 13.696V15.7684C12.75 15.866 12.829 15.9448 12.9264 15.9448H14.1831V22.8236Z" fill="white"/>
</svg>
