<svg width="32" height="32" viewBox="0 0 32 32" fill="none" xmlns="http://www.w3.org/2000/svg">
<path d="M16.0013 29.3333C23.3651 29.3333 29.3346 23.3638 29.3346 16C29.3346 8.63616 23.3651 2.66663 16.0013 2.66663C8.63751 2.66663 2.66797 8.63616 2.66797 16C2.66797 23.3638 8.63751 29.3333 16.0013 29.3333Z" stroke="#51C7AF" stroke-width="2" stroke-linecap="round" stroke-linejoin="round"/>
<path d="M16.0013 21.3333C18.9468 21.3333 21.3346 18.9455 21.3346 16C21.3346 13.0544 18.9468 10.6666 16.0013 10.6666C13.0558 10.6666 10.668 13.0544 10.668 16C10.668 18.9455 13.0558 21.3333 16.0013 21.3333Z" stroke="#51C7AF" stroke-width="2" stroke-linecap="round" stroke-linejoin="round"/>
<path d="M6.57422 6.57333L12.2276 12.2267" stroke="#51C7AF" stroke-width="2" stroke-linecap="round" stroke-linejoin="round"/>
<path d="M19.7734 19.7733L25.4268 25.4267" stroke="#51C7AF" stroke-width="2" stroke-linecap="round" stroke-linejoin="round"/>
<path d="M19.7734 12.2267L25.4268 6.57333" stroke="#51C7AF" stroke-width="2" stroke-linecap="round" stroke-linejoin="round"/>
<path d="M19.7734 12.2267L24.4801 7.51999" stroke="#51C7AF" stroke-width="2" stroke-linecap="round" stroke-linejoin="round"/>
<path d="M6.57422 25.4267L12.2276 19.7733" stroke="#51C7AF" stroke-width="2" stroke-linecap="round" stroke-linejoin="round"/>
</svg>
