<svg width="32" height="32" viewBox="0 0 32 32" fill="none" xmlns="http://www.w3.org/2000/svg">
<rect width="32" height="32" rx="8" fill="#0A66C2"/>
<g clip-path="url(#clip0_767_2542)">
<path d="M10.6827 9.01208C9.7528 9.01208 9.00015 9.76609 9 10.6939C9 11.6225 9.75265 12.3764 10.6828 12.3764C11.6104 12.3764 12.3642 11.6225 12.3642 10.6939C12.3642 9.76594 11.6103 9.01208 10.6827 9.01208Z" fill="white"/>
<path d="M12.132 13.6526H9.23047V22.988H12.132V13.6526Z" fill="white"/>
<path d="M19.5202 13.4204C18.1087 13.4204 17.1623 14.1943 16.7749 14.9281H16.7361V13.6525H13.9533H13.9531V22.9878H16.8521V18.3696C16.8521 17.1521 17.0839 15.9728 18.5935 15.9728C20.0813 15.9728 20.1012 17.3653 20.1012 18.4477V22.9877H23.0006V17.8673C23.0006 15.3539 22.4583 13.4204 19.5202 13.4204Z" fill="white"/>
</g>
<defs>
<clipPath id="clip0_767_2542">
<rect width="14" height="14" fill="white" transform="translate(9 9)"/>
</clipPath>
</defs>
</svg>
