<svg width="20" height="20" viewBox="0 0 20 20" fill="none" xmlns="http://www.w3.org/2000/svg">
<path d="M7.08464 15.8333H6.66797C3.33464 15.8333 1.66797 15 1.66797 10.8333V6.66663C1.66797 3.33329 3.33464 1.66663 6.66797 1.66663H13.3346C16.668 1.66663 18.3346 3.33329 18.3346 6.66663V10.8333C18.3346 14.1666 16.668 15.8333 13.3346 15.8333H12.918C12.6596 15.8333 12.4096 15.9583 12.2513 16.1666L11.0013 17.8333C10.4513 18.5666 9.5513 18.5666 9.0013 17.8333L7.7513 16.1666C7.61797 15.9833 7.30964 15.8333 7.08464 15.8333Z" stroke="#5E43FF" stroke-width="1.5" stroke-miterlimit="10" stroke-linecap="round" stroke-linejoin="round"/>
<path d="M13.3301 9.16667H13.3375" stroke="#5E43FF" stroke-width="2" stroke-linecap="round" stroke-linejoin="round"/>
<path d="M9.99803 9.16667H10.0055" stroke="#5E43FF" stroke-width="2" stroke-linecap="round" stroke-linejoin="round"/>
<path d="M6.66209 9.16667H6.66957" stroke="#5E43FF" stroke-width="2" stroke-linecap="round" stroke-linejoin="round"/>
</svg>
