<svg width="32" height="32" viewBox="0 0 32 32" fill="none" xmlns="http://www.w3.org/2000/svg">
<rect width="32" height="32" rx="8" fill="#BD081C"/>
<g clip-path="url(#clip0_767_2550)">
<path d="M15.0318 18.2599C14.6643 20.1871 14.2153 22.035 12.8853 23.0002C12.4749 20.087 13.4882 17.8992 13.9585 15.5766C13.1563 14.2259 14.0551 11.5079 15.7474 12.1778C17.8296 13.0014 13.9443 17.1989 16.5526 17.7231C19.2761 18.2703 20.3876 12.9978 18.6991 11.2834C16.259 8.80742 11.5963 11.2268 12.1697 14.7716C12.3092 15.6382 13.2047 15.9012 12.5276 17.0969C10.9658 16.7508 10.4998 15.5192 10.5597 13.8772C10.6562 11.1893 12.9747 9.30753 15.3003 9.04722C18.2411 8.718 21.0012 10.1268 21.3824 12.8934C21.8117 16.0158 20.0548 19.3974 16.9103 19.1543C16.0577 19.0881 15.7001 18.6657 15.0318 18.2599Z" fill="white"/>
</g>
<defs>
<clipPath id="clip0_767_2550">
<rect width="14" height="14" fill="white" transform="translate(9 9)"/>
</clipPath>
</defs>
</svg>
