<svg width="24" height="25" viewBox="0 0 24 25" fill="none" xmlns="http://www.w3.org/2000/svg">
<path d="M14.2786 18.8344V20.5164H9.72098V18.8344H0.820312V22.2455C0.820312 22.811 1.27949 23.2694 1.84595 23.2694H22.1536C22.7201 23.2694 23.1793 22.811 23.1793 22.2455V18.8344H14.2786Z" fill="white"/>
<path d="M9.72011 18.8343V20.5164H14.2778V18.8343H21.744V7.83546C21.744 7.26899 21.2848 6.80981 20.7183 6.80981H3.27955C2.71309 6.80981 2.25391 7.26899 2.25391 7.83546V18.8343H9.72011Z" fill="white"/>
<path d="M5.33083 6.80981H3.27955C2.71309 6.80981 2.25391 7.26899 2.25391 7.83546V18.8343H9.72011V20.5164H14.2778V18.8343H21.744V15.7574H14.2784C9.33678 15.7574 5.33083 11.7515 5.33083 6.80981Z" fill="#F0EEFF"/>
<path d="M23.1795 18.0138H22.5655V7.83547C22.5655 6.81747 21.7374 5.98932 20.7194 5.98932H18.7386V7.63034H20.7194C20.8325 7.63034 20.9245 7.72234 20.9245 7.83547V18.0138H14.2789C13.8257 18.0138 13.4584 18.3812 13.4584 18.8343V19.6959H10.5417V18.8343C10.5417 18.3812 10.1743 18.0138 9.72118 18.0138H3.07549V7.83547C3.07549 7.72234 3.16749 7.63034 3.28061 7.63034H5.21282V5.98932H3.28061C2.26261 5.98932 1.43446 6.81747 1.43446 7.83547V18.0138H0.820512C0.367384 18.0138 0 18.3812 0 18.8343V22.2455C0 23.2624 0.828153 24.0898 1.84615 24.0898H22.1538C23.1718 24.0898 24 23.2624 24 22.2455V18.8343C24 18.3812 23.6327 18.0138 23.1795 18.0138ZM22.359 22.2455C22.359 22.3576 22.267 22.4488 22.1538 22.4488H1.84615C1.73302 22.4488 1.64102 22.3576 1.64102 22.2455V19.6548H8.90066V20.5163C8.90066 20.9695 9.26805 21.3369 9.72118 21.3369H14.2789C14.732 21.3369 15.0994 20.9695 15.0994 20.5163V19.6548H22.359V22.2455Z" fill="#050213"/>
<path d="M17.958 3.84013C18.0826 10.5938 13.8878 13.5734 12.4653 14.3881C12.1729 14.5555 11.8178 14.5703 11.5136 14.4253C10.061 13.7328 5.87264 11.1016 6.04418 3.84013C7.47059 3.59131 8.64895 2.40629 8.619 0.910339H15.3832C15.3745 2.39362 16.5153 3.60962 17.958 3.84013Z" fill="#5E43FF"/>
<path d="M10.3845 9.54904L8.60156 7.5613L9.82315 6.46555L11.0343 7.81581L14.2496 4.67371L15.3965 5.8474L11.5687 9.58806C11.4152 9.73801 10.86 10.0258 10.3845 9.54904Z" fill="white"/>
</svg>
