<svg width="20" height="20" viewBox="0 0 20 20" fill="none" xmlns="http://www.w3.org/2000/svg">
<g clip-path="url(#clip0_761_4896)">
<path d="M5.08743 5.401L3.35471 5.53487C2.87256 5.57213 2.44315 5.82483 2.17651 6.22814L0.178211 9.25046C-0.0240135 9.55632 -0.0561616 9.93909 0.0921574 10.2744C0.240516 10.6097 0.545396 10.8434 0.907697 10.8995L2.49421 11.1452C2.86534 9.1757 3.75377 7.21103 5.08743 5.401Z" fill="#5E43FF"/>
<path d="M8.85547 17.5058L9.10121 19.0923C9.15734 19.4546 9.39101 19.7595 9.72628 19.9078C9.86577 19.9696 10.0134 20 10.1603 20C10.3667 20 10.5716 19.9399 10.7503 19.8218L13.7726 17.8235C14.176 17.5568 14.4287 17.1274 14.4658 16.6453L14.5997 14.9126C12.7897 16.2463 10.825 17.1347 8.85547 17.5058Z" fill="#5E43FF"/>
<path d="M8.2579 16.4062C8.31298 16.4062 8.36837 16.4016 8.42364 16.3924C9.24879 16.2544 10.0441 16.022 10.8028 15.7178L4.28211 9.19714C3.97789 9.95577 3.74547 10.7511 3.6075 11.5763C3.55313 11.9015 3.66223 12.2329 3.89539 12.4661L7.5338 16.1045C7.7274 16.2981 7.98868 16.4062 8.2579 16.4062Z" fill="#5E43FF"/>
<path d="M18.4048 8.86724C20.0004 5.78234 20.0595 2.52236 19.9761 0.993469C19.9476 0.469606 19.5299 0.0519527 19.006 0.0233983C18.7571 0.00980461 18.462 0 18.1295 0C16.4199 0 13.7148 0.258943 11.1323 1.59475C9.07985 2.65635 6.38858 4.99387 4.80078 8.06579C4.81953 8.08044 4.83785 8.09599 4.85512 8.11326L11.8863 15.1445C11.9036 15.1617 11.9191 15.18 11.9337 15.1987C15.0057 13.6109 17.3432 10.9196 18.4048 8.86724ZM11.6283 4.22809C12.7705 3.08587 14.6291 3.08576 15.7714 4.22809C16.3247 4.78141 16.6295 5.51714 16.6295 6.29968C16.6295 7.08221 16.3247 7.81795 15.7714 8.37126C15.2003 8.94231 14.45 9.2279 13.6998 9.22797C12.9495 9.22801 12.1995 8.94247 11.6283 8.37126C11.0749 7.81795 10.7701 7.08221 10.7701 6.29968C10.7701 5.51714 11.0749 4.78141 11.6283 4.22809Z" fill="#5E43FF"/>
<path d="M12.4563 7.54265C13.1416 8.228 14.2568 8.22804 14.9422 7.54265C15.2742 7.21062 15.457 6.76921 15.457 6.29968C15.457 5.83015 15.2742 5.38874 14.9422 5.05675C14.5995 4.71405 14.1494 4.54272 13.6992 4.54272C13.2491 4.54272 12.7989 4.71405 12.4563 5.05675C12.1243 5.38874 11.9414 5.83015 11.9414 6.29968C11.9414 6.76921 12.1243 7.21065 12.4563 7.54265Z" fill="#5E43FF"/>
<path d="M0.597676 16.4819C0.747637 16.4819 0.897598 16.4247 1.01197 16.3102L2.92498 14.3972C3.15381 14.1684 3.15381 13.7974 2.92498 13.5686C2.69619 13.3398 2.32518 13.3398 2.09635 13.5686L0.18334 15.4816C-0.0454883 15.7104 -0.0454883 16.0814 0.18334 16.3102C0.297754 16.4247 0.447715 16.4819 0.597676 16.4819Z" fill="#5E43FF"/>
<path d="M4.67818 15.3218C4.44939 15.0929 4.07838 15.0929 3.84955 15.3218L0.171621 18.9997C-0.057207 19.2285 -0.057207 19.5995 0.171621 19.8283C0.286035 19.9427 0.435996 19.9999 0.585957 19.9999C0.735918 19.9999 0.885879 19.9427 1.00025 19.8283L4.67814 16.1504C4.90701 15.9216 4.90701 15.5506 4.67818 15.3218Z" fill="#5E43FF"/>
<path d="M5.60412 17.0748L3.69115 18.9878C3.46232 19.2167 3.46232 19.5876 3.69115 19.8165C3.80557 19.9309 3.95553 19.9881 4.10545 19.9881C4.25537 19.9881 4.40537 19.9309 4.51974 19.8165L6.43275 17.9035C6.66158 17.6746 6.66158 17.3036 6.43275 17.0748C6.20396 16.846 5.83295 16.846 5.60412 17.0748Z" fill="#5E43FF"/>
</g>
<defs>
<clipPath id="clip0_761_4896">
<rect width="20" height="20" fill="white"/>
</clipPath>
</defs>
</svg>
