<svg width="32" height="32" viewBox="0 0 32 32" fill="none" xmlns="http://www.w3.org/2000/svg">
<rect width="32" height="32" rx="8" fill="#3DB2FA"/>
<path d="M13.5613 21.2559C18.5144 21.2559 21.223 17.1524 21.223 13.5942C21.223 13.4776 21.2206 13.3616 21.2154 13.2461C21.7411 12.866 22.1981 12.3916 22.5586 11.8517C22.0762 12.0662 21.5569 12.2105 21.0123 12.2757C21.5682 11.9422 21.995 11.4149 22.1963 10.7862C21.6761 11.0947 21.0998 11.3188 20.4864 11.4398C19.9951 10.9164 19.2954 10.5891 18.5207 10.5891C17.0338 10.5891 15.8278 11.795 15.8278 13.2815C15.8278 13.4929 15.8514 13.6984 15.8976 13.8956C13.6596 13.7829 11.6749 12.7115 10.3469 11.0821C10.1158 11.48 9.98237 11.9423 9.98237 12.4356C9.98237 13.3697 10.4578 14.1946 11.1806 14.677C10.7389 14.6635 10.3239 14.5422 9.9611 14.3403C9.9607 14.3516 9.9607 14.3626 9.9607 14.3747C9.9607 15.6788 10.8889 16.7677 12.1212 17.0144C11.8948 17.076 11.6567 17.1091 11.4111 17.1091C11.2379 17.1091 11.069 17.0921 10.9049 17.0606C11.2477 18.1305 12.2419 18.9091 13.4205 18.9309C12.4988 19.6533 11.3378 20.0836 10.076 20.0836C9.85892 20.0836 9.64437 20.0712 9.43359 20.0463C10.6254 20.8102 12.0405 21.256 13.5614 21.256" fill="white"/>
</svg>
