<svg xmlns="http://www.w3.org/2000/svg" fill="none" viewBox="0 0 372 140" height="140" width="372">
<g clip-path="url(#clip0_3695_2854)">
<path fill="white" d="M154.683 41.9042C154.493 39.6667 154.05 37.5252 153.321 35.4795C150.757 28.064 144.932 22.2147 137.618 19.6256C135.465 18.8585 133.186 18.3791 130.843 18.2192H69.2969V35.4795H130.906C134.231 36.1507 136.858 38.7717 137.618 42.0959C137.745 42.7352 137.808 43.385 137.808 44.0457C137.808 44.7064 137.745 45.3562 137.618 45.9955C136.827 49.4795 134.009 52.1644 130.463 52.7078H86.3614V69.9361H130.906C133.249 69.7763 135.497 69.3288 137.618 68.5617C144.932 65.9727 150.757 60.1233 153.321 52.7078C154.05 50.6622 154.493 48.4886 154.683 46.2512C154.746 45.548 154.778 44.8234 154.778 44.0777C154.778 43.3531 154.746 42.6288 154.683 41.9042Z"></path>
<path fill="white" d="M154.683 41.9042C154.493 39.6667 154.05 37.5252 153.321 35.4795C150.757 28.064 144.932 22.2147 137.618 19.6256C135.465 18.8585 133.186 18.3791 130.843 18.2192H69.2969V35.4795H130.906C134.231 36.1507 136.858 38.7717 137.618 42.0959C137.745 42.7352 137.808 43.385 137.808 44.0457C137.808 44.7064 137.745 45.3562 137.618 45.9955C136.827 49.4795 134.009 52.1644 130.463 52.7078H86.3614V69.9361H130.906C133.249 69.7763 135.497 69.3288 137.618 68.5617C144.932 65.9727 150.757 60.1233 153.321 52.7078C154.05 50.6622 154.493 48.4886 154.683 46.2512C154.746 45.548 154.778 44.8234 154.778 44.0777C154.778 43.3531 154.746 42.6288 154.683 41.9042Z"></path>
<path fill="white" d="M137.621 88.5708C135.5 87.8357 133.284 87.3562 130.941 87.1964H86.3643V97.5845C85.6678 101.069 82.8818 103.817 79.3992 104.425C78.9139 104.531 78.4073 104.585 77.8796 104.585C77.3518 104.585 76.8348 104.531 76.3283 104.425C72.7191 103.785 69.8697 100.845 69.2998 97.169V52.7078H52.2036V97.169C51.6654 100.845 48.8161 103.785 45.1752 104.425C44.6687 104.531 44.1517 104.585 43.6239 104.585C43.1174 104.585 42.6108 104.531 42.1042 104.425C38.6217 103.817 35.8357 101.069 35.1391 97.5845V35.4795H52.2036V18.2192H18.043V97.5206C18.2013 99.9179 18.7078 102.251 19.4676 104.425C22.0321 111.808 27.8258 117.658 35.1391 120.247C37.5453 121.11 40.1414 121.589 42.8324 121.685H44.4471C47.1698 121.589 49.7659 121.078 52.2036 120.215C55.4013 119.064 58.2823 117.306 60.7517 115.069C63.2212 117.306 66.1022 119.064 69.2998 120.215C71.7376 121.078 74.3654 121.589 77.0564 121.685H78.6711C81.3621 121.589 83.9582 121.11 86.3643 120.247C93.6777 117.658 99.4714 111.808 102.036 104.425H130.941C134.265 105.128 136.861 107.749 137.621 111.073V121.685H154.686V110.849C154.496 108.612 154.053 106.47 153.356 104.425C150.76 97.0412 144.966 91.1599 137.621 88.5708Z"></path>
<path fill="white" d="M137.621 88.5708C135.5 87.8357 133.284 87.3562 130.941 87.1964H86.3643V97.5845C85.6678 101.069 82.8818 103.817 79.3992 104.425C78.9139 104.531 78.4073 104.585 77.8796 104.585C77.3518 104.585 76.8348 104.531 76.3283 104.425C72.7191 103.785 69.8697 100.845 69.2998 97.169V52.7078H52.2036V97.169C51.6654 100.845 48.8161 103.785 45.1752 104.425C44.6687 104.531 44.1517 104.585 43.6239 104.585C43.1174 104.585 42.6108 104.531 42.1042 104.425C38.6217 103.817 35.8357 101.069 35.1391 97.5845V35.4795H52.2036V18.2192H18.043V97.5206C18.2013 99.9179 18.7078 102.251 19.4676 104.425C22.0321 111.808 27.8258 117.658 35.1391 120.247C37.5453 121.11 40.1414 121.589 42.8324 121.685H44.4471C47.1698 121.589 49.7659 121.078 52.2036 120.215C55.4013 119.064 58.2823 117.306 60.7517 115.069C63.2212 117.306 66.1022 119.064 69.2998 120.215C71.7376 121.078 74.3654 121.589 77.0564 121.685H78.6711C81.3621 121.589 83.9582 121.11 86.3643 120.247C93.6777 117.658 99.4714 111.808 102.036 104.425H130.941C134.265 105.128 136.861 107.749 137.621 111.073V121.685H154.686V110.849C154.496 108.612 154.053 106.47 153.356 104.425C150.76 97.0412 144.966 91.1599 137.621 88.5708Z"></path>
<path stroke-miterlimit="10" stroke-width="5" stroke="white" d="M171.915 104.393V139.041H0.953125V0.958862H171.915V35.4474"></path>
<path stroke-miterlimit="10" stroke-width="5" stroke="white" d="M171.915 104.393V139.041H0.953125V0.958862H171.915V35.4474"></path>
<path fill="white" d="M171.91 55.1802H179.836L183.772 74.8962L184.326 81.0815H184.603L185.268 74.8962L189.536 55.1802H196.631L200.954 74.8962L201.62 81.0815H201.897L202.451 74.8962L206.331 55.1802H214.312L205.998 93.8388H197.85L193.084 68.4789L188.317 93.8388H180.169L171.91 55.1802ZM230.781 94.612C228.046 94.612 225.589 93.787 223.409 92.1377C221.266 90.4369 219.584 88.0655 218.365 85.0245C217.145 81.9835 216.536 78.4784 216.536 74.5095C216.536 70.592 217.182 67.1128 218.476 64.0718C219.806 61.0308 221.561 58.6594 223.741 56.9587C225.921 55.2576 228.268 54.407 230.781 54.407C233.515 54.407 235.935 55.2058 238.042 56.804C240.148 58.4018 241.774 60.6955 242.919 63.6851C244.102 66.6749 244.693 70.2053 244.693 74.2774V77.1382H223.852C224.037 79.8186 224.757 81.9576 226.014 83.5555C227.307 85.1019 228.952 85.8751 230.947 85.8751C234.125 85.8751 236.231 83.8904 237.266 79.9219L243.751 80.8494L244.139 81.7773C243.104 86.0553 241.441 89.2769 239.15 91.4418C236.896 93.5552 234.106 94.612 230.781 94.612ZM237.376 70.1797C237.192 67.8601 236.49 66.0046 235.27 64.613C234.051 63.2213 232.536 62.5254 230.725 62.5254C229.099 62.5254 227.658 63.2213 226.402 64.613C225.182 66.0046 224.406 67.8601 224.074 70.1797H237.376ZM266.541 94.612C262.92 94.612 259.964 92.9626 257.673 89.6637V93.8388H249.913V37.3973H257.673V58.8915C260.149 55.9016 263.049 54.407 266.375 54.407C268.703 54.407 270.865 55.1546 272.86 56.6493C274.892 58.1439 276.518 60.4123 277.738 63.4533C278.957 66.4943 279.567 70.1797 279.567 74.5095C279.567 78.8393 278.92 82.525 277.627 85.566C276.371 88.5555 274.745 90.8233 272.749 92.3697C270.754 93.8643 268.685 94.612 266.541 94.612ZM264.435 85.6433C266.578 85.6433 268.315 84.6636 269.645 82.7052C271.013 80.7465 271.696 78.0143 271.696 74.5095C271.696 71.0047 271.031 68.2725 269.701 66.3141C268.37 64.3553 266.652 63.376 264.546 63.376C262.587 63.376 260.943 64.2262 259.613 65.9273C258.32 67.6284 257.673 69.8706 257.673 72.654V76.3653C257.673 79.1487 258.338 81.3906 259.668 83.0917C260.998 84.7928 262.587 85.6433 264.435 85.6433ZM284.988 55.1802H292.748V59.8194C293.746 58.1701 294.891 56.8557 296.185 55.8761C297.478 54.8967 298.901 54.407 300.453 54.407C301.561 54.407 302.448 54.6135 303.113 55.0255L302.116 63.5304L301.727 64.0718C300.988 63.8142 300.36 63.6851 299.843 63.6851C298.328 63.6851 296.961 64.278 295.741 65.4635C294.522 66.6487 293.524 68.3757 292.748 70.6438V93.8388H284.988V55.1802ZM311.704 50.9278C310.485 50.9278 309.432 50.3093 308.545 49.0723C307.658 47.835 307.215 46.366 307.215 44.6652C307.215 42.9641 307.658 41.4951 308.545 40.2581C309.432 39.0211 310.485 38.4026 311.704 38.4026C312.961 38.4026 314.014 39.0211 314.864 40.2581C315.75 41.4951 316.194 42.9641 316.194 44.6652C316.194 46.366 315.75 47.835 314.864 49.0723C314.014 50.3093 312.961 50.9278 311.704 50.9278ZM307.824 55.1802H315.584V93.8388H307.824V55.1802ZM333.26 94.612C330.673 94.612 328.622 93.6326 327.109 91.6739C325.592 89.7155 324.835 86.7774 324.835 82.8596V64.1492H319.903V55.1802H324.835V44.1241H325.833L332.541 47.3712V55.1802H338.414V64.1492H332.541V81.932C332.541 83.169 332.798 84.1225 333.317 84.7928C333.833 85.463 334.571 85.7977 335.533 85.7977C336.125 85.7977 336.863 85.6174 337.749 85.2566L338.139 85.566V93.8388C336.549 94.3543 334.922 94.612 333.26 94.612ZM356.865 94.612C353.984 94.612 351.398 93.7358 349.106 91.9833C346.817 90.2304 345.022 87.8338 343.73 84.7928C342.438 81.7518 341.789 78.3237 341.789 74.5095C341.789 70.6953 342.438 67.2672 343.73 64.2262C345.022 61.1855 346.817 58.7886 349.106 57.036C351.398 55.2831 353.984 54.407 356.865 54.407C359.784 54.407 362.39 55.2831 364.682 57.036C366.971 58.7886 368.766 61.1855 370.058 64.2262C371.353 67.2672 371.999 70.6953 371.999 74.5095C371.999 78.3237 371.353 81.7518 370.058 84.7928C368.766 87.8338 366.971 90.2304 364.682 91.9833C362.39 93.7358 359.784 94.612 356.865 94.612ZM356.865 85.2566C359.009 85.2566 360.766 84.3031 362.13 82.3958C363.536 80.4374 364.239 77.8084 364.239 74.5095C364.239 71.2105 363.536 68.6078 362.13 66.7005C360.766 64.7421 359.009 63.7624 356.865 63.7624C354.722 63.7624 352.968 64.7421 351.6 66.7005C350.233 68.6078 349.549 71.2105 349.549 74.5095C349.549 77.8084 350.233 80.4374 351.6 82.3958C352.968 84.3031 354.722 85.2566 356.865 85.2566Z"></path>
</g>
<defs>
<clipPath id="clip0_3695_2854">
<rect fill="white" height="140" width="372"></rect>
</clipPath>
</defs>
</svg>
