<svg width="125" height="47" viewBox="0 0 125 47" fill="none" xmlns="http://www.w3.org/2000/svg">
<g clip-path="url(#clip0_761_5376)">
<path d="M51.9766 14.0678C51.9128 13.3167 51.7639 12.5977 51.5192 11.911C50.6575 9.42148 48.7001 7.45778 46.2426 6.5886C45.5192 6.33107 44.7532 6.17011 43.966 6.11646H23.2852V11.911H43.9873C45.1043 12.1363 45.9873 13.0162 46.2426 14.1322C46.2852 14.3468 46.3064 14.565 46.3064 14.7868C46.3064 15.0086 46.2852 15.2267 46.2426 15.4413C45.9766 16.611 45.0298 17.5123 43.8383 17.6948H29.0192V23.4786H43.9873C44.7745 23.4249 45.5298 23.2747 46.2426 23.0171C48.7001 22.148 50.6575 20.1843 51.5192 17.6948C51.7639 17.008 51.9128 16.2783 51.9766 15.5272C51.9979 15.2911 52.0086 15.0478 52.0086 14.7975C52.0086 14.5542 51.9979 14.3111 51.9766 14.0678Z" fill="#5E43FF"/>
<path d="M51.9766 14.0678C51.9128 13.3167 51.7639 12.5977 51.5192 11.911C50.6575 9.42148 48.7001 7.45778 46.2426 6.5886C45.5192 6.33107 44.7532 6.17011 43.966 6.11646H23.2852V11.911H43.9873C45.1043 12.1363 45.9873 13.0162 46.2426 14.1322C46.2852 14.3468 46.3064 14.565 46.3064 14.7868C46.3064 15.0086 46.2852 15.2267 46.2426 15.4413C45.9766 16.611 45.0298 17.5123 43.8383 17.6948H29.0192V23.4786H43.9873C44.7745 23.4249 45.5298 23.2747 46.2426 23.0171C48.7001 22.148 50.6575 20.1843 51.5192 17.6948C51.7639 17.008 51.9128 16.2783 51.9766 15.5272C51.9979 15.2911 52.0086 15.0478 52.0086 14.7975C52.0086 14.5542 51.9979 14.3111 51.9766 14.0678Z" fill="#5E43FF"/>
<path d="M46.2434 29.7345C45.5306 29.4877 44.7859 29.3267 43.9987 29.2731H29.0199V32.7605C28.7859 33.9302 27.8497 34.853 26.6795 35.0569C26.5164 35.0926 26.3462 35.1105 26.1689 35.1105C25.9915 35.1105 25.8178 35.0926 25.6476 35.0569C24.4348 34.8423 23.4774 33.855 23.2859 32.621V17.6948H17.5412V32.621C17.3604 33.855 16.4029 34.8423 15.1795 35.0569C15.0093 35.0926 14.8356 35.1105 14.6582 35.1105C14.488 35.1105 14.3178 35.0926 14.1476 35.0569C12.9774 34.853 12.0412 33.9302 11.8072 32.7605V11.911H17.5412V6.11646H6.0625V32.7391C6.11569 33.5439 6.2859 34.3272 6.54122 35.0569C7.40293 37.5356 9.34973 39.4993 11.8072 40.3685C12.6157 40.6582 13.488 40.8192 14.3923 40.8514H14.9348C15.8497 40.8192 16.7221 40.6475 17.5412 40.3578C18.6157 39.9715 19.5838 39.3813 20.4136 38.6302C21.2434 39.3813 22.2114 39.9715 23.2859 40.3578C24.1051 40.6475 24.988 40.8192 25.8923 40.8514H26.4348C27.3391 40.8192 28.2114 40.6582 29.0199 40.3685C31.4774 39.4993 33.4242 37.5356 34.2859 35.0569H43.9987C45.1157 35.2929 45.988 36.1728 46.2434 37.2888V40.8514H51.9774V37.2137C51.9136 36.4626 51.7646 35.7436 51.5306 35.0569C50.6582 32.5781 48.7114 30.6037 46.2434 29.7345Z" fill="#5E43FF"/>
<path d="M46.2434 29.7345C45.5306 29.4877 44.7859 29.3267 43.9987 29.2731H29.0199V32.7605C28.7859 33.9302 27.8497 34.853 26.6795 35.0569C26.5164 35.0926 26.3462 35.1105 26.1689 35.1105C25.9915 35.1105 25.8178 35.0926 25.6476 35.0569C24.4348 34.8423 23.4774 33.855 23.2859 32.621V17.6948H17.5412V32.621C17.3604 33.855 16.4029 34.8423 15.1795 35.0569C15.0093 35.0926 14.8356 35.1105 14.6582 35.1105C14.488 35.1105 14.3178 35.0926 14.1476 35.0569C12.9774 34.853 12.0412 33.9302 11.8072 32.7605V11.911H17.5412V6.11646H6.0625V32.7391C6.11569 33.5439 6.2859 34.3272 6.54122 35.0569C7.40293 37.5356 9.34973 39.4993 11.8072 40.3685C12.6157 40.6582 13.488 40.8192 14.3923 40.8514H14.9348C15.8497 40.8192 16.7221 40.6475 17.5412 40.3578C18.6157 39.9715 19.5838 39.3813 20.4136 38.6302C21.2434 39.3813 22.2114 39.9715 23.2859 40.3578C24.1051 40.6475 24.988 40.8192 25.8923 40.8514H26.4348C27.3391 40.8192 28.2114 40.6582 29.0199 40.3685C31.4774 39.4993 33.4242 37.5356 34.2859 35.0569H43.9987C45.1157 35.2929 45.988 36.1728 46.2434 37.2888V40.8514H51.9774V37.2137C51.9136 36.4626 51.7646 35.7436 51.5306 35.0569C50.6582 32.5781 48.7114 30.6037 46.2434 29.7345Z" fill="#5E43FF"/>
<path d="M57.7671 35.0461V46.6781H0.320312V0.321899H57.7671V11.9002" stroke="#5E43FF" stroke-width="5" stroke-miterlimit="10"/>
<path d="M57.7671 35.0461V46.6781H0.320312V0.321899H57.7671V11.9002" stroke="#5E43FF" stroke-width="5" stroke-miterlimit="10"/>
<path d="M57.7656 18.5248H60.429L61.7514 25.1437L61.9376 27.2202H62.0307L62.2542 25.1437L63.6884 18.5248H66.0723L67.5251 25.1437L67.7486 27.2202H67.8417L68.028 25.1437L69.3317 18.5248H72.0137L69.22 31.503H66.4821L64.8804 22.9893L63.2786 31.503H60.5407L57.7656 18.5248ZM77.5473 31.7626C76.6286 31.7626 75.8028 31.4856 75.0703 30.9319C74.3501 30.3609 73.7851 29.5648 73.3754 28.5439C72.9656 27.523 72.7607 26.3463 72.7607 25.0139C72.7607 23.6987 72.9781 22.5307 73.4126 21.5098C73.8597 20.4889 74.4495 19.6928 75.182 19.1218C75.9146 18.5507 76.7031 18.2652 77.5473 18.2652C78.4662 18.2652 79.2795 18.5334 79.9872 19.0699C80.695 19.6063 81.2413 20.3763 81.6263 21.38C82.0235 22.3837 82.2222 23.5689 82.2222 24.936V25.8964H75.2192C75.2813 26.7962 75.5234 27.5143 75.9456 28.0508C76.3802 28.5699 76.9328 28.8295 77.6033 28.8295C78.6711 28.8295 79.3788 28.1632 79.7265 26.8309L81.9056 27.1423L82.0359 27.4538C81.6883 28.89 81.1296 29.9715 80.3598 30.6983C79.6023 31.4078 78.6649 31.7626 77.5473 31.7626ZM79.7637 23.5603C79.7017 22.7816 79.4657 22.1587 79.0559 21.6915C78.6463 21.2243 78.1372 20.9907 77.5287 20.9907C76.9824 20.9907 76.4982 21.2243 76.076 21.6915C75.6663 22.1587 75.4055 22.7816 75.2937 23.5603H79.7637ZM89.5637 31.7626C88.3469 31.7626 87.3536 31.2089 86.5837 30.1014V31.503H83.9762V12.5548H86.5837V19.7707C87.4156 18.767 88.3903 18.2652 89.5078 18.2652C90.2901 18.2652 91.0165 18.5162 91.6869 19.018C92.3699 19.5197 92.9162 20.2813 93.326 21.3022C93.7356 22.3231 93.9405 23.5603 93.9405 25.0139C93.9405 26.4675 93.7233 27.7048 93.2887 28.7257C92.8666 29.7293 92.3202 30.4907 91.6497 31.0098C90.9791 31.5116 90.2839 31.7626 89.5637 31.7626ZM88.8559 28.7517C89.5762 28.7517 90.1597 28.4228 90.6067 27.7653C91.0662 27.1077 91.2958 26.1905 91.2958 25.0139C91.2958 23.8373 91.0723 22.92 90.6253 22.2626C90.1783 21.605 89.6009 21.2762 88.8932 21.2762C88.2351 21.2762 87.6825 21.5616 87.2355 22.1327C86.8011 22.7038 86.5837 23.4566 86.5837 24.391V25.6369C86.5837 26.5713 86.8072 27.324 87.2541 27.8951C87.7012 28.4661 88.2351 28.7517 88.8559 28.7517ZM95.7623 18.5248H98.3698V20.0822C98.705 19.5285 99.09 19.0873 99.5246 18.7584C99.9591 18.4296 100.437 18.2652 100.959 18.2652C101.331 18.2652 101.629 18.3345 101.853 18.4728L101.517 21.328L101.387 21.5098C101.139 21.4233 100.928 21.38 100.754 21.38C100.245 21.38 99.7853 21.579 99.3755 21.977C98.9658 22.3749 98.6305 22.9547 98.3698 23.7161V31.503H95.7623V18.5248ZM104.739 17.0972C104.33 17.0972 103.976 16.8895 103.678 16.4743C103.38 16.0589 103.231 15.5657 103.231 14.9947C103.231 14.4237 103.38 13.9305 103.678 13.5152C103.976 13.0999 104.33 12.8923 104.739 12.8923C105.162 12.8923 105.516 13.0999 105.801 13.5152C106.099 13.9305 106.248 14.4237 106.248 14.9947C106.248 15.5657 106.099 16.0589 105.801 16.4743C105.516 16.8895 105.162 17.0972 104.739 17.0972ZM103.436 18.5248H106.043V31.503H103.436V18.5248ZM111.983 31.7626C111.114 31.7626 110.424 31.4338 109.916 30.7762C109.406 30.1188 109.152 29.1324 109.152 27.8171V21.5358H107.494V18.5248H109.152V14.8131H109.487L111.741 15.9032V18.5248H113.715V21.5358H111.741V27.5057C111.741 27.921 111.827 28.2411 112.002 28.4661C112.175 28.6912 112.423 28.8035 112.746 28.8035C112.945 28.8035 113.193 28.743 113.491 28.6218L113.622 28.7257V31.503C113.088 31.6761 112.541 31.7626 111.983 31.7626ZM119.915 31.7626C118.946 31.7626 118.077 31.4684 117.307 30.8801C116.538 30.2916 115.935 29.487 115.501 28.4661C115.067 27.4452 114.849 26.2944 114.849 25.0139C114.849 23.7334 115.067 22.5826 115.501 21.5616C115.935 20.5408 116.538 19.7362 117.307 19.1478C118.077 18.5593 118.946 18.2652 119.915 18.2652C120.895 18.2652 121.771 18.5593 122.541 19.1478C123.31 19.7362 123.914 20.5408 124.348 21.5616C124.783 22.5826 125 23.7334 125 25.0139C125 26.2944 124.783 27.4452 124.348 28.4661C123.914 29.487 123.31 30.2916 122.541 30.8801C121.771 31.4684 120.895 31.7626 119.915 31.7626ZM119.915 28.6218C120.635 28.6218 121.225 28.3017 121.684 27.6614C122.156 27.004 122.392 26.1214 122.392 25.0139C122.392 23.9064 122.156 23.0326 121.684 22.3923C121.225 21.7348 120.635 21.4059 119.915 21.4059C119.194 21.4059 118.605 21.7348 118.145 22.3923C117.686 23.0326 117.456 23.9064 117.456 25.0139C117.456 26.1214 117.686 27.004 118.145 27.6614C118.605 28.3017 119.194 28.6218 119.915 28.6218Z" fill="#5E43FF"/>
</g>
<defs>
<clipPath id="clip0_761_5376">
<rect width="125" height="47" fill="white"/>
</clipPath>
</defs>
</svg>
