<svg width="64" height="48" viewBox="0 0 64 48" fill="none" xmlns="http://www.w3.org/2000/svg">
<path d="M63.9555 10.988C63.8666 9.94995 63.6592 8.95644 63.3184 8.00741C62.1181 4.56719 59.3914 1.85357 55.9684 0.652456C54.9607 0.296571 53.8938 0.0741427 52.7972 0H23.9901V8.00741H52.8269C54.3828 8.31881 55.6127 9.53475 55.9684 11.0769C56.0277 11.3735 56.0573 11.675 56.0573 11.9815C56.0573 12.288 56.0277 12.5894 55.9684 12.886C55.5979 14.5023 54.2791 15.7479 52.6194 16H31.9773V23.9926H52.8269C53.9234 23.9184 54.9755 23.7108 55.9684 23.355C59.3914 22.1538 62.1181 19.4402 63.3184 16C63.6592 15.051 63.8666 14.0426 63.9555 13.0046C63.9852 12.6784 64 12.3422 64 11.9963C64 11.6601 63.9852 11.3241 63.9555 10.988Z" fill="white"/>
<path d="M55.9694 32.6376C54.9766 32.2966 53.9393 32.0741 52.8427 32H31.9783V36.8193C31.6523 38.4356 30.3483 39.7108 28.7182 39.9926C28.4911 40.042 28.254 40.0667 28.0069 40.0667C27.7599 40.0667 27.5179 40.042 27.2808 39.9926C25.5915 39.696 24.2579 38.3318 23.9911 36.6265V16H15.9891V36.6265C15.7372 38.3318 14.4036 39.696 12.6994 39.9926C12.4623 40.042 12.2204 40.0667 11.9733 40.0667C11.7362 40.0667 11.4991 40.042 11.262 39.9926C9.63202 39.7108 8.32799 38.4356 8.00198 36.8193V8.00741H15.9891V0H0V36.7896C0.0740924 37.9018 0.311188 38.9842 0.666832 39.9926C1.86713 43.418 4.57891 46.1316 8.00198 47.3327C9.12819 47.7331 10.3433 47.9555 11.6029 48H12.3586C13.633 47.9555 14.8481 47.7183 15.9891 47.3179C17.4858 46.7841 18.8343 45.9685 19.9901 44.9305C21.146 45.9685 22.4945 46.7841 23.9911 47.3179C25.1322 47.7183 26.3621 47.9555 27.6217 48H28.3774C29.637 47.9555 30.8521 47.7331 31.9783 47.3327C35.4014 46.1316 38.1131 43.418 39.3134 39.9926H52.8427C54.3987 40.3188 55.6138 41.5348 55.9694 43.0769V48H63.9566V42.9731C63.8677 41.9351 63.6602 40.9416 63.3342 39.9926C62.1191 36.5672 59.4073 33.8387 55.9694 32.6376Z" fill="white"/>
</svg>
