<svg width="135" height="25" viewBox="0 0 135 25" fill="none" xmlns="http://www.w3.org/2000/svg">
<g opacity="0.7">
<g clip-path="url(#clip0_761_3420)">
<path d="M23.7119 25H22.1879C20.5707 24.5092 19.8118 23.3129 19.3017 21.8098C18.4433 19.2761 17.4792 16.773 16.5585 14.2577C16.4963 14.0859 16.4279 13.9141 16.3097 13.6135C16.1915 13.9141 16.1293 14.0736 16.0734 14.2331C15.0968 17.0123 14.1139 19.7853 13.1498 22.5706C12.7641 23.681 12.0426 24.4294 10.9229 24.816C10.7923 24.8589 10.6741 24.9387 10.5497 25H9.02571C8.98217 24.9693 8.94485 24.9202 8.89508 24.908C7.56393 24.5767 6.78017 23.7301 6.35097 22.4479C4.4351 16.7055 2.48814 10.9755 0.54739 5.23926C0.391881 4.77301 0.18661 4.31902 0 3.86503V2.68712C0.292356 2.14724 0.534949 1.57669 0.895729 1.07975C1.35603 0.447853 2.10869 0.233129 2.83025 0H4.13653C5.59208 0.398773 6.35719 1.36196 6.72419 2.79141C7.40842 5.43558 8.18596 8.05521 8.93241 10.6871C9.26208 11.8589 9.6042 13.0368 9.9401 14.2086C10.1143 14.0184 10.1765 13.8221 10.2325 13.6258C11.1966 10.0552 12.1919 6.4908 13.1187 2.90798C13.4857 1.43558 14.201 0.361963 15.7748 0H17.081C17.1246 0.0306748 17.1557 0.0797546 17.2055 0.0920245C18.5802 0.460123 19.3701 1.33129 19.7185 2.69325C20.4774 5.66871 21.286 8.6319 22.076 11.6012C22.3061 12.4663 22.5425 13.3252 22.7727 14.1902C22.9157 14.0675 22.9593 13.9509 22.9904 13.8405C23.9172 10.1902 24.8814 6.54601 25.7584 2.8773C26.1005 1.43558 26.7537 0.374233 28.2839 0H29.5901C29.6461 0.0368098 29.7021 0.0858896 29.7643 0.104294C31.6988 0.717791 32.6132 2.19632 32.1903 4.16564C32.0099 5.0184 31.6988 5.84049 31.4314 6.67485C29.7519 11.9325 28.0724 17.1902 26.3991 22.4479C26.0383 23.5767 25.3417 24.3804 24.1971 24.7853C24.0292 24.8466 23.8737 24.9264 23.7119 24.9939V25Z" fill="#6B6B6B"/>
<path d="M135.002 22.1044C134.958 22.221 134.908 22.3314 134.877 22.448C134.467 23.9204 133.297 24.8652 131.742 24.8713C127.668 24.8897 123.587 24.902 119.513 24.8713C117.535 24.859 116.39 23.7363 116.378 21.7854C116.353 15.6013 116.353 9.4173 116.378 3.23938C116.384 1.25165 117.51 0.13509 119.526 0.12282C123.581 0.092145 127.643 0.0982799 131.699 0.12282C133.328 0.128955 134.461 1.05534 134.884 2.60748C134.908 2.70564 134.958 2.8038 134.996 2.90196V4.2946C134.958 4.37435 134.908 4.44797 134.877 4.52773C134.367 6.14736 133.391 6.95104 131.668 6.98785C129.092 7.03693 126.523 7.00626 123.948 7.00626C123.718 7.00626 123.494 7.00626 123.27 7.00626V9.34981C123.507 9.34981 123.706 9.34981 123.905 9.34981C125.932 9.34981 127.967 9.34981 129.994 9.34981C130.728 9.34981 131.437 9.46638 132.053 9.9081C133.123 10.675 133.583 12.1719 133.161 13.5155C132.738 14.8529 131.693 15.6136 130.169 15.6259C128.066 15.6443 125.964 15.6259 123.861 15.632C123.668 15.632 123.475 15.6504 123.264 15.6566V18.0247C123.513 18.0247 123.724 18.0247 123.936 18.0247C126.511 18.0247 129.086 18.0124 131.655 18.0247C133.279 18.0308 134.398 18.8897 134.865 20.4173C134.896 20.5155 134.946 20.6075 134.989 20.7056V22.0983L135.002 22.1044Z" fill="#6B6B6B"/>
<path d="M43.5132 0C44.8878 0.288344 45.5534 1.25153 46.0573 2.46012C48.5205 8.34969 51.0149 14.227 53.503 20.1043C54.4236 22.2761 53.5279 24.1718 51.2575 24.8712C51.1393 24.908 51.0273 24.9632 50.9154 25.0061H49.3914C48.0291 24.6258 47.3262 23.6626 46.9343 22.3865C46.7415 21.7546 46.4616 21.1534 46.2625 20.5215C46.1568 20.184 45.9764 20.0859 45.6343 20.092C43.9859 20.1043 42.3375 20.092 40.6891 20.0982C40.036 20.0982 39.2273 19.8957 38.7795 20.2025C38.313 20.5215 38.1574 21.3252 37.9397 21.9387C37.4483 23.319 36.7268 24.4785 35.2401 25.0061H33.7161C33.6353 24.9693 33.5606 24.9202 33.4797 24.8957C31.116 24.2638 30.2016 22.1534 31.1907 20.0491C33.9338 14.2025 36.621 8.33742 39.3206 2.46626C39.8556 1.30061 40.5274 0.312883 41.8834 0H43.5132ZM42.7294 10.4172L42.5988 10.4294L40.8695 14.6871H44.1974C43.6998 13.2331 43.2146 11.8282 42.7294 10.4172Z" fill="#6B6B6B"/>
<path d="M104.755 0C104.817 0.0368098 104.873 0.0797546 104.941 0.0981595C106.683 0.570552 107.504 1.61963 107.504 3.40491C107.504 8.03681 107.504 12.6626 107.504 17.2945C107.504 17.5215 107.523 17.7485 107.535 18.0245C108.723 18.0245 109.862 18.0245 111 18.0245C112.692 18.0245 113.638 18.589 114.204 19.9264C114.776 21.2883 114.446 23.1166 113.451 24.0798C112.879 24.638 112.157 24.8712 111.373 24.8773C108.854 24.8896 106.335 24.9018 103.816 24.8773C101.956 24.8589 100.948 23.9448 100.687 22.1227C100.643 21.8037 100.631 21.4847 100.631 21.1595C100.631 15.5092 100.674 9.8589 100.606 4.21472C100.587 2.12883 101.178 0.613497 103.343 0H104.755Z" fill="#6B6B6B"/>
<path d="M78.3398 12.5643C78.3398 9.65022 78.3398 6.73611 78.3398 3.82813C78.3398 1.76678 80.0007 0.0919373 82.0907 0.116477C84.0626 0.141017 86.0531 0.0858023 87.9938 0.355741C93.2438 1.07967 97.287 5.14715 98.1143 10.3189C98.7177 14.0981 98.0397 17.5889 95.5826 20.6134C93.5486 23.1226 90.8427 24.5214 87.6019 24.7668C85.6363 24.914 83.6582 24.8956 81.6864 24.8649C79.6088 24.8343 78.3585 23.4784 78.3461 21.3557C78.3336 18.4232 78.3461 15.4968 78.3461 12.5643H78.3398ZM85.3004 18.006C87.6019 18.1226 89.468 17.4171 90.6126 15.4539C91.8255 13.3741 91.9064 11.2085 90.4757 9.18396C89.2379 7.4355 87.3842 6.96924 85.3004 7.07967V18.006Z" fill="#6B6B6B"/>
<path d="M56.0586 12.5706C56.0586 9.60129 56.0586 6.6381 56.0586 3.66877C56.0586 1.95711 57.5577 0.208647 59.2994 0.147297C61.6071 0.0614079 63.9335 -0.0428866 66.2288 0.417236C70.9874 1.36816 74.7196 5.0246 75.6962 9.73625C76.4862 13.5461 75.9264 17.1166 73.5502 20.27C71.1802 23.4111 67.8648 24.8037 63.9522 24.8774C62.5029 24.9019 61.0535 24.8896 59.6042 24.8774C57.3711 24.8651 56.0586 23.5583 56.0586 21.362C56.0586 18.4295 56.0586 15.5031 56.0586 12.5706ZM63.0254 7.07981V18.0123C65.2647 18.1228 67.1121 17.4479 68.2691 15.5461C69.4821 13.5461 69.6127 11.4295 68.3251 9.40497C67.1184 7.50313 65.2087 6.99392 63.0254 7.07981Z" fill="#6B6B6B"/>
</g>
</g>
<defs>
<clipPath id="clip0_761_3420">
<rect width="135" height="25" rx="12.5" fill="white"/>
</clipPath>
</defs>
</svg>
