<svg width="158" height="31" viewBox="0 0 158 31" fill="none" xmlns="http://www.w3.org/2000/svg">
<g opacity="0.7">
<g clip-path="url(#clip0_761_3453)">
<path d="M39.3828 20.2688L42.1141 18.8754C43.3287 21.2063 45.2033 22.329 47.7381 22.329C50.22 22.329 51.901 21.5511 51.901 19.7587C51.901 18.0433 50.6337 17.2397 47.2687 16.2766C43.3257 15.151 40.1544 14.1081 40.1544 10.3296C40.1544 6.95579 42.9942 4.73315 47.1308 4.73315C51.1559 4.73315 53.5292 6.66228 54.7702 8.99035L52.2619 10.6773C51.0473 8.694 49.3105 7.785 47.1044 7.785C44.8425 7.785 43.5458 8.58856 43.5458 10.0361C43.5458 11.8855 45.0068 12.501 48.3424 13.4641C52.2032 14.5612 55.2924 15.795 55.2924 19.5165C55.2924 22.7564 52.4526 25.301 47.6002 25.301C43.5487 25.3039 40.6795 23.2693 39.3828 20.2688ZM56.7299 24.9277V5.10929H60.1213V16.9206L65.6631 10.7058H69.386L64.6158 15.9033L69.7997 24.9306H66.2411L62.4624 18.3425L60.1184 20.833V24.9306H56.7299V24.9277Z" fill="#6B6B6B"/>
<path d="M69.6094 17.8325C69.6094 12.4213 73.5523 10.4408 76.5858 10.4408C79.8686 10.4408 83.0106 12.3415 83.0106 18.1289V18.9068H73.0008C73.1387 21.4771 74.7669 22.6026 76.9173 22.6026C78.8213 22.6026 79.9244 21.9871 81.0274 20.9413L82.8199 22.6568C81.3032 24.2895 79.2907 25.227 76.6709 25.227C73.0008 25.2242 69.6094 23.0528 69.6094 17.8325ZM79.895 16.4391C79.7014 14.2706 78.5983 13.1165 76.5594 13.1165C74.9048 13.1165 73.388 14.0284 73.0565 16.4391H79.895ZM86.6778 21.2063V13.3303H84.1401V10.7058H86.6778V5.75052H90.0692V10.7058H93.8478V13.3303H90.0692V20.3743C90.0692 21.9016 90.5386 22.5171 92.2196 22.5171C92.7154 22.5171 93.3491 22.4373 93.6806 22.3291V24.9278C93.3227 25.0076 92.0524 25.1159 91.1987 25.1159C87.4787 25.1159 86.6778 23.7766 86.6778 21.2063ZM95.1709 17.8325C95.1709 12.3956 98.9496 10.4408 102.203 10.4408C105.844 10.4408 107.387 12.3956 108.27 14.5926L105.401 15.5842C104.823 13.9771 103.773 13.1992 102.147 13.1992C100.217 13.1992 98.5887 14.4302 98.5887 17.8325C98.5887 20.8587 99.8561 22.52 102.092 22.52C103.635 22.52 104.711 22.0641 105.512 20.0551L108.326 21.0468C107.278 23.3235 105.542 25.2242 102.012 25.2242C98.6181 25.2242 95.1709 23.0272 95.1709 17.8325ZM110.365 24.9278V5.10938H113.785V12.635C114.724 11.6718 116.487 10.438 119.134 10.438C121.698 10.438 123.352 11.9112 123.352 14.7237V24.9278H119.935V15.5529C119.935 13.9743 119.245 13.2505 117.755 13.2505C116.264 13.2505 115.023 13.9999 113.782 15.0998V24.9307H110.365V24.9278ZM125.946 17.6957V5.10938H129.393V17.4022C129.393 20.4284 130.745 22.2236 133.887 22.2236C137.003 22.2236 138.355 20.4826 138.355 17.4279V5.10938H141.747V17.6701C141.747 22.1695 139.127 25.2498 133.861 25.2498C128.234 25.2498 125.946 22.198 125.946 17.6957ZM143.979 30.2849V10.7058H147.371V12.5808C148.336 11.4553 149.853 10.438 152.032 10.438C155.368 10.438 157.824 12.8743 157.824 17.804C157.824 22.7337 155.315 25.1415 151.563 25.1415C149.991 25.1415 148.447 24.526 147.371 23.3463V30.2821H143.979V30.2849ZM154.432 17.8325C154.432 14.832 153.109 13.2533 150.929 13.2533C149.524 13.2533 148.172 14.111 147.371 15.0485V20.7533C148.28 21.9045 149.603 22.52 150.818 22.52C153.385 22.5171 154.432 20.9926 154.432 17.8325Z" fill="#6B6B6B"/>
<path d="M29.515 6.75053L19.1266 0.934645C19.1266 0.934645 17.4808 0 14.8551 0C12.1209 0 10.5367 0.96314 10.5367 0.96314L0.914062 6.3117L15.5534 14.4841V31L25.1877 25.6571C25.1877 25.6571 26.9098 24.7339 28.2182 22.5398C29.3712 20.6078 29.515 18.7385 29.515 18.7385V6.75053ZM13.8489 9.44048C13.8489 9.44048 15.9963 9.0558 17.8123 10.0731C19.6283 11.0904 20.6991 11.6888 20.6991 11.6888C20.6991 11.6888 20.702 13.105 20.702 15.2222C20.702 16.9176 19.2234 18.6758 19.2234 18.6758L19.2264 12.4553L13.8489 9.44048ZM22.3625 23.084L19.2264 24.8308V23.1923L21.6672 21.8359C23.9907 20.2088 24.3751 17.8095 24.3751 16.9775L24.3663 9.6086L17.7096 5.88712C17.7096 5.88712 16.6975 5.24313 14.8786 5.24313C13.0597 5.24313 12.0681 5.83868 12.0681 5.83868L9.72991 7.14376L8.25424 6.31455L11.4843 4.5222C11.4843 4.5222 12.7487 3.84116 14.8669 3.84116C16.8119 3.84116 18.3257 4.57919 18.3257 4.57919L25.8419 8.79649L25.8331 16.8379C25.8859 18.0745 25.2933 21.095 22.3625 23.084Z" fill="#6B6B6B"/>
<path d="M0.175781 11.6603L10.438 17.3793L10.4292 19.0833L4.59104 15.832L0.918014 17.8609L10.4233 23.1809L10.4292 24.8222L0.246191 19.1317C0.272594 19.7985 0.894544 21.853 2.08564 23.4431C3.29433 25.0531 4.67318 25.7369 4.67318 25.7369L14.0846 31V15.3048L0.184582 7.55127L0.175781 11.6603Z" fill="#6B6B6B"/>
</g>
</g>
<defs>
<clipPath id="clip0_761_3453">
<rect width="158" height="31" rx="15.5" fill="white"/>
</clipPath>
</defs>
</svg>
