<svg width="165" height="26" viewBox="0 0 165 26" fill="none" xmlns="http://www.w3.org/2000/svg">
<g opacity="0.7">
<path fill-rule="evenodd" clip-rule="evenodd" d="M26.3393 25.9999V0.059082H0V25.9999H26.3393Z" fill="#6B6B6B"/>
<path fill-rule="evenodd" clip-rule="evenodd" d="M25.6783 25.3509V0.708252H0.65625V25.3509H25.6783Z" fill="white"/>
<path fill-rule="evenodd" clip-rule="evenodd" d="M25.679 25.3509V17.219H17.4219V25.3509H25.679Z" fill="#6B6B6B"/>
<path fill-rule="evenodd" clip-rule="evenodd" d="M17.4212 25.3509V17.219H9.16406V25.3509H17.4212ZM25.6783 17.219V9.08706H17.4212V17.219H25.6783ZM30.5284 25.9686V0H43.1183V6.13108H37.6627V9.88592H42.7681V16.0151H37.6627V25.9686H30.5284ZM46.6493 0H59.903V6.13108H53.7836V9.74723H59.273V15.8774H53.7836V19.8375H59.903V25.9686H46.6493V0ZM74.4438 25.9686L70.4922 15.1553L70.4227 15.2237C70.4584 16.4969 70.5269 17.7719 70.5269 19.0469V25.9686H63.3926V0H70.2819C76.4726 0 80.9481 1.79097 80.9481 8.64509C80.9481 11.5049 79.6891 14.0522 76.8575 15.1562L82.1723 25.9695L74.4438 25.9686ZM70.9813 12.0208C72.8693 12.0208 73.8842 10.4018 73.8842 8.71443C73.8842 6.44175 72.4853 5.47738 70.526 5.58001V11.9866L70.9813 12.0208ZM94.858 25.9686L90.9083 15.1553L90.8369 15.2237C90.8717 16.4969 90.943 17.7719 90.943 19.0469V25.9686H83.8059V0H90.697C96.8878 0 101.363 1.79097 101.363 8.64509C101.363 11.5049 100.103 14.0522 97.2708 15.1562L102.587 25.9695L94.858 25.9686ZM91.3974 12.0208C93.2845 12.0208 94.2984 10.4018 94.2984 8.71443C94.2984 6.44175 92.9014 5.47738 90.943 5.58001V11.9866L91.3974 12.0208Z" fill="#6B6B6B"/>
<path fill-rule="evenodd" clip-rule="evenodd" d="M115.661 25.9686L115.136 22.628H110.344L109.752 25.9686H102.406L108.736 0H117.446L123.04 25.9686H115.661ZM114.299 17.1182L113.529 11.0898C113.319 9.47169 113.18 7.81757 113.004 6.1995H112.934C112.725 7.81757 112.55 9.47169 112.271 11.0898L111.291 17.1182H114.299ZM124.685 0H131.47L137.171 15.6379L137.24 15.5676C136.959 12.5728 136.436 9.61038 136.436 6.61373V0.000924101H143.29V25.9695H136.436L131.12 10.9881L131.05 11.0565C131.225 13.5021 131.54 15.9125 131.54 18.36V25.9695H124.685V0ZM146.781 0H152.518C160.631 0 165.002 5.02895 165.002 12.8816C165.002 24.8674 157.345 25.9686 153.006 25.9686H146.781V0ZM153.915 19.7006C157.168 19.6664 157.728 15.6721 157.728 13.2265C157.728 10.4018 157.168 6.47503 153.915 6.47503V19.7006Z" fill="#6B6B6B"/>
</g>
</svg>
