<svg width="155" height="36" viewBox="0 0 155 36" fill="none" xmlns="http://www.w3.org/2000/svg">
<g opacity="0.7">
<g clip-path="url(#clip0_761_3466)">
<path d="M93.6567 14.3752V31.9733H97.6494V23.7224L105.863 31.9733H110.369L101.243 22.7415L109.513 14.3752H105.806L97.6494 22.6261V14.3752H93.6567ZM83.561 16.5101H90.9189V14.3752H83.675C83.675 14.3752 80.1387 14.3752 78.0283 16.337C78.0283 16.337 75.5756 18.6449 75.5756 23.2031C75.5756 23.2031 75.5756 27.7036 78.0283 29.9538C78.0283 29.9538 80.1387 31.9733 83.561 31.9733H90.9189V29.8385H83.618C83.618 29.8385 81.6787 29.8385 80.595 27.8767C80.595 27.8767 79.6253 26.088 79.6253 23.2031C79.6253 23.2031 79.6253 20.3182 80.595 18.4718C80.595 18.4718 81.6787 16.5101 83.561 16.5101ZM61.259 19.2796V31.9733H65.2517V19.2796C65.2517 19.2796 65.2517 18.068 64.4532 16.8563C64.4532 16.8563 62.7991 14.3752 58.6923 14.3752H40.1549V31.9733H44.1476V16.5101H50.5929V31.9733H54.5856V16.5101H58.5782L59.9472 16.8563C59.9472 16.8563 61.259 17.6064 61.259 19.2796ZM69.0162 14.3752H73.0089V31.9733H69.0162V14.3752ZM20.3626 14.3752V16.5101H29.9451L31.314 16.8563C31.314 16.8563 32.6259 17.5487 32.6259 19.2219V21.1837H24.3553C24.3553 21.1837 22.1879 21.2414 20.6478 22.7992C20.6478 22.7992 19.1078 24.3571 19.1078 26.6073C19.1078 26.6073 19.1078 28.7422 21.0471 30.4154C21.0471 30.4154 22.9294 31.9733 25.2109 31.9733H36.6185V19.6258C36.6185 19.6258 36.6756 18.2987 35.82 17.0294C35.82 17.0294 34.1088 14.3752 29.7169 14.3752H20.3626ZM26.6368 23.3185H32.6259V29.8385H26.6939C26.6939 29.8385 25.382 29.8385 24.4124 28.8576C24.4124 28.8576 23.4997 27.9344 23.4997 26.5496C23.4997 26.5496 23.4997 25.1649 24.4124 24.2417C24.4124 24.2417 25.2679 23.3185 26.6368 23.3185ZM5.0764 17.2602C5.0764 17.2602 5.64678 16.5101 6.55939 16.5101H16.3129V14.3752H5.19048C5.19048 14.3752 0.0570382 14.4329 0.0570382 18.8757C0.0570382 18.8757 0.0570382 23.3185 5.19048 23.3185H9.75353C9.75353 23.3185 12.6625 23.3185 12.6625 26.5496C12.6625 26.5496 12.6625 29.7808 9.63946 29.8385H0V31.9733H10.3239C10.3239 31.9733 13.5181 31.9733 15.3433 30.3577C15.3433 30.3577 17.0544 28.8576 17.0544 26.5496C17.0544 26.5496 17.1115 25.2226 16.37 23.8378C16.37 23.8378 14.887 21.1837 10.8943 21.1837H6.95866C6.95866 21.1837 4.50602 21.1837 4.50602 18.8757C4.50602 18.8757 4.50602 17.9526 5.0764 17.2602Z" fill="#6B6B6B"/>
<path d="M151.578 28.3962L151.007 28.4539C151.007 28.4539 126.424 34.1084 109.37 34.57H0.0273438V35.2047H151.578C151.578 35.2047 153.004 35.2047 153.973 34.1661C153.973 34.1661 155 33.1852 155 31.8005C155 31.8005 155 30.358 153.973 29.3771C153.973 29.3771 153.004 28.3962 151.578 28.3962Z" fill="#6B6B6B"/>
<path d="M145.149 20.7827C145.149 20.7827 136.536 25.3985 124.786 29.3797L114.805 32.4378L114.52 32.7263L114.805 32.8993L124.958 31.2261C124.958 31.2261 137.221 29.0335 147.716 26.3794L148.286 26.1486L149.313 25.3408C149.313 25.3408 150.168 24.36 150.054 23.0906C150.054 23.0906 149.94 21.8212 148.914 20.9558C148.914 20.9558 147.83 20.0326 146.347 20.3211L145.149 20.7827ZM140.749 14.2792C140.749 14.2792 134.133 20.5684 125.292 25.7612L117.82 29.6847L117.649 29.9732L117.934 30.0886L125.577 27.4922C125.577 27.4922 135.045 23.7995 144.285 18.5489C144.285 18.5489 145.084 18.2027 145.483 17.2218C145.483 17.2218 145.939 16.1256 145.483 15.087C145.483 15.087 145.027 13.9907 143.943 13.5291C143.943 13.5291 142.728 12.9939 141.662 13.5868L140.749 14.2792ZM139.73 7.15334C139.73 7.15334 138.589 6.92255 137.734 7.55723L137.049 8.30731C137.049 8.30731 131.516 16.5005 125.527 22.2704L120.565 26.3669L120.451 26.7131L120.793 26.7708L126.554 23.3089C126.554 23.3089 133.684 18.4623 140.699 11.4807C140.699 11.4807 141.327 10.9037 141.498 10.1537C141.498 10.1537 141.783 9.17279 141.27 8.30731C141.27 8.30731 140.757 7.44183 139.73 7.15334ZM125.091 21.2209C125.091 21.2209 132.392 13.4893 137.468 4.48836C137.468 4.48836 137.924 3.91137 137.924 3.1036C137.924 3.1036 137.924 2.12272 137.24 1.48804C137.24 1.48804 136.555 0.795654 135.529 0.795654C135.529 0.795654 134.388 0.795654 133.761 1.66113L133.304 2.52661C133.304 2.52661 130.566 12.22 124.806 20.9324L124.748 21.2209H125.091Z" fill="#6B6B6B"/>
</g>
</g>
<defs>
<clipPath id="clip0_761_3466">
<rect width="155" height="36" rx="18" fill="white"/>
</clipPath>
</defs>
</svg>
