<svg width="168" height="22" viewBox="0 0 168 22" fill="none" xmlns="http://www.w3.org/2000/svg">
<g opacity="0.7">
<path fill-rule="evenodd" clip-rule="evenodd" d="M31.0078 15.4971C32.8747 16.8121 35.3001 17.8451 37.6331 17.8451C39.1264 17.8451 41.3659 17.7511 40.9924 15.1211C40.7122 12.5842 31.2871 13.0541 31.8465 5.54105C31.9399 3.94408 32.687 2.34801 34.1795 1.40899C35.8596 0.375066 38.0057 0 39.9651 0C41.7377 0 43.6046 0.0939899 45.2838 0.657947V6.19901C44.2574 5.35307 42.0179 4.03898 40.4311 3.757C39.218 3.47502 37.352 3.85099 36.9784 5.16598C36.6983 6.48098 38.285 7.70199 39.4048 8.17195C40.9915 8.735 42.8575 9.29896 44.164 10.238C45.7507 11.459 46.497 12.774 46.5903 14.5589C46.5903 16.3439 46.3102 18.128 44.8168 19.5369C43.2301 21.133 40.8972 21.885 38.5643 21.885C36.4181 21.885 34.2719 21.509 32.3117 20.8519L31.0078 15.4971ZM91.199 17.4682C92.2271 17.8442 94.5592 17.9382 95.678 17.9382C97.4515 17.9382 99.4118 17.4682 100.998 16.3421H101.185L99.2241 21.5072H85.134V21.4132C86.534 20.0042 86.2529 18.9721 86.2529 17.4682V4.78911C86.2529 4.22515 86.7199 1.68916 85.134 0.844126V0.750136H100.531V5.54015H100.437C99.5968 4.22515 96.8912 4.41314 93.3451 4.41314H91.1981V8.7332H99.8779V13.3352H99.6902C99.2232 12.2091 95.8648 12.3962 93.3451 12.3962H91.1981L91.199 17.4682ZM160.349 18.8772C160.628 20.757 161.19 21.1312 161.468 21.4141V21.5081H153.63V21.4132C154.47 20.2871 154.656 19.8171 154.842 18.3132V12.2091L148.685 3.00415C148.123 2.06513 147.656 1.31319 146.631 0.844126V0.750136H153.537L158.11 7.88816L161.749 2.62818L162.123 1.97114C162.216 1.21919 162.123 1.21919 161.843 0.844126V0.750136H168.002L167.535 1.59517L160.349 12.21V18.8772ZM75.3345 17.8442C75.4279 19.5351 75.8014 20.0982 76.7344 21.4132V21.5072H69.4554V21.4132C70.2959 20.0042 70.3884 19.0652 70.3884 17.4682V4.78911C70.3884 3.28613 70.4818 1.97114 69.0819 0.844126V0.750136H84.3869V5.54015H84.2935C83.4539 4.22515 81.587 4.41314 80.0012 4.41314H75.3354V8.7332H83.8275V13.4292H83.6407C83.1738 12.3962 77.108 12.3962 75.9882 12.3962H75.3345V17.8442Z" fill="#6B6B6B"/>
<path fill-rule="evenodd" clip-rule="evenodd" d="M52.9364 14.5573L51.5365 17.8443C51.2563 18.4074 50.8828 19.2533 50.8828 19.8182C50.8828 20.6623 50.6026 21.0383 51.2563 21.4143V21.5083H44.817V21.4134C46.0301 20.4743 46.2169 19.6284 46.8697 18.2203L52.562 4.69529C52.7488 4.13134 53.2157 2.91033 53.2157 2.25329C53.2157 1.50134 53.4025 1.22027 52.7488 0.844299V0.75031H60.4013L67.1199 17.4684C67.6803 18.6903 68.3331 20.9443 69.0802 21.4134V21.5073H62.3607V21.4134C63.2012 20.9434 62.7342 19.8173 62.7342 19.5353L62.3607 18.5963L60.5881 14.5573H52.9364ZM56.8561 5.16525H56.7627L54.4298 10.8003H59.0956L56.8561 5.16525ZM126.379 21.1314L126.565 21.5073H119.473C119.66 21.3203 119.66 21.0374 119.473 19.8182L116.58 7.79525L113.408 20.8512V21.2272L113.501 21.5083H106.689C106.782 20.7581 106.969 20.7581 106.596 18.7843L102.676 4.6962C102.209 3.47519 102.209 1.97221 101.184 0.845203V0.751213H107.341L107.155 1.31517V1.97312L110.514 14.8393L113.222 4.6962C113.408 4.13224 113.781 3.09922 113.781 2.53617C113.781 1.69024 113.967 1.50225 113.408 0.845203V0.751213H120.034V0.845203C119.916 0.97351 119.85 1.1407 119.846 1.31517C119.846 2.34819 120.22 3.19412 120.313 3.56919L123.581 14.9351L125.726 6.38717L126.006 5.26015L126.659 2.53617C126.659 2.53617 127.033 1.50225 126.566 0.845203V0.751213H132.165L131.792 1.22117L131.606 1.69114L126.38 20.6632L126.379 21.1314ZM136.271 14.5573L134.871 17.8443C134.683 18.4074 134.312 19.2533 134.312 19.8182C134.312 20.6623 134.031 21.0383 134.591 21.4143V21.5083H128.152V21.4134C129.365 20.4743 129.645 19.6284 130.204 18.2203L135.99 4.69529C136.178 4.13134 136.551 2.91033 136.551 2.34728C136.551 1.50135 136.737 1.22027 136.084 0.844299V0.75031H143.736L150.548 17.4684C151.107 18.6903 151.762 20.9443 152.414 21.4134V21.5073H145.695V21.4134C146.536 20.9434 146.162 19.8173 146.069 19.6284L145.695 18.5954L144.015 14.5564L136.271 14.5573ZM140.191 5.16525L137.856 10.8003H142.43L140.191 5.16525ZM6.74289 21.6962C5.06279 21.4143 3.1968 21.2263 1.89025 19.9113C0.769576 18.7834 0.396917 17.0924 0.210138 15.5903C-0.0700462 12.9054 -0.0700462 10.1982 0.210138 7.51327C0.303528 5.44723 0.490306 3.19322 2.35629 1.97221C4.87601 0.187254 7.95516 0.281249 10.8484 0.187256C8.32871 0.375241 5.34295 0.657217 3.75623 3.19321C2.63646 4.97817 2.63646 6.94931 2.54217 8.92226C2.44879 12.2102 2.16952 15.6843 3.66195 18.7843C4.22228 20.0062 5.34205 20.8512 6.64861 21.3212L6.74289 21.6962ZM18.1283 0.375242C20.2744 0.563227 22.7008 0.845205 24.1941 2.72416C24.8478 3.4752 25.1271 4.50821 25.3139 5.54123C25.8742 9.5802 25.9676 13.6192 24.9403 17.6582C24.5668 19.1602 23.5404 20.1933 22.2338 20.8512C20.9273 21.4143 18.5943 22.0713 14.6756 21.9773C16.9151 21.8833 19.6216 21.5073 21.3942 19.7233C21.9546 19.1602 22.3272 18.4083 22.514 17.5642C23.5404 13.5234 23.447 7.04421 22.3272 4.03825C21.6735 2.1593 19.9943 0.939195 18.1283 0.657217V0.375242Z" fill="#6B6B6B"/>
<path fill-rule="evenodd" clip-rule="evenodd" d="M7.76644 21.789C10.1928 22.0701 11.2191 22.0701 13.4587 21.789C14.2992 21.695 15.0454 21.3191 15.6982 20.9431C17.6585 19.7212 18.7783 17.75 18.8708 15.496C19.1509 11.551 15.885 9.579 13.2719 6.66703C12.9917 6.38505 12.7125 5.91599 12.5257 5.44603C12.2455 4.69409 12.2455 3.66107 12.6191 2.91003C13.4596 1.12507 15.6991 0.468025 17.3783 0.65601V0.562924C17.0048 0.562924 16.2586 0.468931 15.3247 0.562924C16.1652 0.468931 16.9114 0.562924 17.285 0.562924C17.285 0.468931 17.3783 0.374938 17.3783 0.374938C15.0454 0.186953 14.1124 0.0929565 11.8729 0.468928C11.2191 0.656913 10.3795 0.938893 9.63333 1.40886C7.67305 2.53587 6.64667 4.6019 6.46079 6.76193C6.27401 10.706 9.53994 12.7729 12.153 15.5909C12.4332 15.9669 12.7134 16.3429 12.8068 16.8128C13.0869 17.5648 13.0869 18.5978 12.7134 19.3479C11.8729 21.1329 9.72671 21.7908 7.95412 21.6019H7.76734V21.789H7.76644Z" fill="#6B6B6B"/>
</g>
</svg>
