<svg width="172" height="44" viewBox="0 0 172 44" fill="none" xmlns="http://www.w3.org/2000/svg">
<g opacity="0.7">
<g clip-path="url(#clip0_761_3478)">
<path d="M42.0778 22C42.0778 27.524 39.8612 32.8217 35.9156 36.7278C31.9701 40.6339 26.6187 42.8283 21.0389 42.8283C15.459 42.8283 10.1077 40.6339 6.16215 36.7278C2.21659 32.8217 0 27.524 0 22C0 16.4759 2.21659 11.1782 6.16215 7.27211C10.1077 3.36604 15.459 1.17163 21.0389 1.17163C26.6187 1.17163 31.9701 3.36604 35.9156 7.27211C39.8612 11.1782 42.0778 16.4759 42.0778 22Z" fill="#FFFFFF"/>
<path d="M21.2102 33.6083C15.4288 33.6284 9.41338 28.7514 9.38284 20.9017C9.37266 15.7122 12.2023 10.7243 15.8054 7.76181C19.3374 4.86983 24.162 3.02581 28.5387 3.00566C29.0494 2.98663 29.5603 3.04093 30.0553 3.16689C28.1337 3.58617 26.4111 4.63491 25.1662 6.1435C23.9213 7.65208 23.2268 9.53231 23.195 11.4801C23.195 11.6212 23.195 11.7622 23.2154 11.8227C29.6278 13.3644 32.5287 17.1935 32.549 22.4938C32.545 23.9616 32.2482 25.4142 31.6756 26.7681C31.103 28.122 30.2658 29.3506 29.2123 30.3834C28.1587 31.4161 26.9094 32.2326 25.5362 32.7861C24.163 33.3395 22.6928 33.6189 21.2102 33.6083Z" fill="white"/>
<path d="M55.6648 30.6255L49.2422 15.4199H53.4459L57.4664 25.5166L61.3546 15.4199H65.3649L59.1153 30.6255H55.6648ZM76.551 22.9471C76.5557 22.3355 76.4804 21.7258 76.3271 21.1333C76.1975 20.609 75.9696 20.1133 75.6553 19.6722C75.372 19.2723 75.0038 18.9387 74.5764 18.6948C74.1204 18.44 73.6036 18.3112 73.0801 18.322C72.5566 18.3107 72.0397 18.4395 71.5839 18.6948C71.152 18.9364 70.78 19.2703 70.4948 19.6722C70.1829 20.1171 69.9585 20.6162 69.8332 21.1434C69.6808 21.7326 69.6055 22.3389 69.6093 22.9471C69.6042 23.5588 69.6795 24.1685 69.8332 24.7609C69.9614 25.2837 70.1782 25.7811 70.4745 26.2321C70.756 26.6572 71.1417 27.0049 71.5955 27.2427C72.0493 27.4806 72.5565 27.6009 73.07 27.5924C73.5832 27.6079 74.0916 27.4905 74.545 27.2519C74.9984 27.0134 75.3811 26.6619 75.6553 26.2321C75.9652 25.7885 76.1927 25.2937 76.3271 24.771C76.4817 24.1753 76.557 23.5621 76.551 22.9471ZM80.429 22.9572C80.4292 23.9488 80.2747 24.9345 79.971 25.8794C79.6749 26.8116 79.2092 27.6824 78.5969 28.4489C77.9403 29.2666 77.0991 29.9204 76.1411 30.3579C75.183 30.7954 74.1346 31.0044 73.0801 30.9681C72.0246 31.002 70.9755 30.792 70.0162 30.3547C69.0568 29.9174 68.2136 29.2649 67.5532 28.4489C66.9423 27.6816 66.4767 26.811 66.1791 25.8794C65.5743 23.9876 65.5743 21.957 66.1791 20.0652C66.477 19.1429 66.9427 18.2823 67.5532 17.5259C68.1745 16.769 68.9564 16.1567 69.8434 15.7323C70.8539 15.258 71.9621 15.0234 73.0801 15.0471C74.128 15.0184 75.1686 15.2268 76.1229 15.6563C77.0771 16.0859 77.9198 16.7253 78.5867 17.5259C79.1974 18.2716 79.6656 19.118 79.971 20.0652C80.2763 21.0124 80.429 21.9798 80.429 22.9572ZM92.2971 18.7754C91.6228 18.4942 90.9013 18.3404 90.1698 18.322C89.5979 18.2946 89.0283 18.4093 88.5127 18.6557C87.9971 18.9021 87.552 19.2723 87.218 19.7327C86.8965 20.175 86.6554 20.6694 86.5055 21.1938C86.3476 21.7341 86.2688 22.294 86.2714 22.8564C86.2679 23.4668 86.3362 24.0755 86.475 24.6702C86.5974 25.2074 86.8144 25.7191 87.1162 26.1817C87.3911 26.6074 87.76 26.9657 88.1952 27.2297C88.6227 27.4917 89.1418 27.6327 89.7219 27.6327C90.2464 27.6212 90.7601 27.4828 91.2182 27.2297C91.6571 27.0249 92.0305 26.7041 92.2971 26.3026V18.7754ZM92.6126 30.6255L92.4599 29.4566C92.0544 29.8927 91.5714 30.2514 91.035 30.5146C90.257 30.8441 89.4144 30.997 88.569 30.9621C87.7236 30.9273 86.8968 30.7055 86.1493 30.3131C85.3478 29.8766 84.6529 29.2712 84.1136 28.5396C83.544 27.7703 83.1167 26.9072 82.8515 25.9902C82.5656 25.0076 82.4216 23.9898 82.424 22.9673C82.424 21.9697 82.5665 21.0023 82.8616 20.0551C83.1488 19.1355 83.608 18.2775 84.2154 17.5259C84.8715 16.7206 85.7078 16.0775 86.6581 15.6472C87.6085 15.217 88.647 15.0116 89.6914 15.0471C90.5057 15.0471 91.3708 15.1982 92.2971 15.4904V9.59562H96.2463V30.6255H92.6126ZM107.361 23.4912C106.49 23.549 105.624 23.6566 104.766 23.8137C103.911 23.985 103.32 24.2671 102.984 24.6803C102.67 25.0577 102.497 25.5313 102.496 26.0205C102.496 26.5243 102.679 26.9274 103.056 27.2297C103.512 27.5602 104.069 27.724 104.633 27.6932C105.142 27.6932 105.651 27.5924 106.13 27.3808C106.582 27.1853 106.998 26.9162 107.361 26.5848V23.4912ZM107.677 30.6053L107.524 29.4767C107.073 29.9607 106.516 30.3363 105.896 30.5751C104.591 31.0861 103.143 31.1076 101.824 30.6356C100.877 30.3229 100.056 29.7176 99.4827 28.9085C98.9092 28.0995 98.6132 27.1295 98.6383 26.1414C98.6252 25.4759 98.7682 24.8165 99.056 24.2151C99.3439 23.6136 99.7688 23.0864 100.297 22.675C100.831 22.2637 101.425 21.9342 102.058 21.6976C103.271 21.272 104.533 21.0011 105.814 20.8915L107.341 20.7504V20.5287C107.341 19.6924 107.117 19.0979 106.679 18.7351C106.158 18.3514 105.516 18.1622 104.867 18.201C103.714 18.2067 102.59 18.5658 101.651 19.2288C101.446 19.3579 101.249 19.4993 101.061 19.6521L99.7477 16.9112C100.378 16.4382 101.069 16.0517 101.804 15.7625C103.717 14.9752 105.84 14.8405 107.84 15.3796C108.527 15.5923 109.156 15.9581 109.678 16.449C110.2 16.9398 110.602 17.5426 110.852 18.2111C111.158 19.054 111.303 19.9458 111.28 20.8411V30.6154L107.677 30.6053ZM123.484 13.062C122.78 12.7502 122.015 12.5986 121.245 12.6186C120.705 12.6186 120.237 12.7798 119.871 13.1124C119.494 13.4348 119.311 13.9689 119.311 14.7045V15.4199H122.629V18.5739H119.341V30.6255H115.392V18.5739H113.356V15.4199H115.392V14.6138C115.392 13.6162 115.524 12.7798 115.779 12.0946C115.986 11.4808 116.337 10.924 116.802 10.4689C117.267 10.0138 117.833 9.67326 118.456 9.4747C120.269 8.99521 122.191 9.11191 123.932 9.80723L123.484 13.062ZM134.253 22.9471C134.255 22.3356 134.18 21.7262 134.029 21.1333C133.899 20.609 133.671 20.1133 133.357 19.6722C133.074 19.2723 132.705 18.9387 132.278 18.6948C131.822 18.44 131.305 18.3112 130.782 18.322C130.258 18.3107 129.741 18.4395 129.286 18.6948C128.855 18.9381 128.483 19.2717 128.197 19.6722C127.884 20.1181 127.656 20.6167 127.525 21.1434C127.215 22.3331 127.215 23.5812 127.525 24.771C127.659 25.2903 127.879 25.784 128.176 26.2321C128.454 26.6478 128.828 26.9929 129.265 27.2397C129.731 27.4882 130.253 27.6132 130.782 27.6025C131.294 27.6151 131.801 27.4954 132.253 27.2551C132.704 27.0148 133.085 26.6622 133.357 26.2321C133.667 25.7885 133.894 25.2937 134.029 24.771C134.182 24.1749 134.257 23.562 134.253 22.9471ZM138.131 22.9572C138.133 23.9489 137.978 24.9349 137.673 25.8794C137.378 26.8123 136.912 27.6834 136.299 28.4489C135.642 29.2666 134.801 29.9204 133.843 30.3579C132.885 30.7954 131.836 31.0044 130.782 30.9681C129.726 31.002 128.677 30.792 127.718 30.3547C126.759 29.9174 125.915 29.2649 125.255 28.4489C124.644 27.6816 124.178 26.811 123.881 25.8794C123.268 23.9888 123.268 21.9558 123.881 20.0652C124.176 19.1436 124.638 18.2831 125.245 17.5259C125.869 16.7678 126.654 16.1554 127.545 15.7323C128.556 15.258 129.664 15.0234 130.782 15.0471C131.83 15.0184 132.87 15.2268 133.825 15.6563C134.779 16.0859 135.621 16.7253 136.288 17.5259C136.899 18.2716 137.367 19.118 137.673 20.0652C137.978 21.0124 138.131 21.9798 138.131 22.9572ZM150.396 30.6255V21.9596C150.457 21.0074 150.199 20.0619 149.663 19.2692C149.425 18.9614 149.116 18.7146 148.762 18.5498C148.407 18.385 148.018 18.3068 147.627 18.322C147.023 18.3151 146.43 18.4794 145.917 18.7956C145.425 19.0899 144.971 19.4418 144.563 19.8435V30.6255H140.614V15.4199H144.217L144.401 16.6291C145.643 15.6036 147.211 15.0435 148.828 15.0471C149.643 15.0471 150.386 15.168 151.068 15.4098C151.733 15.6478 152.33 16.042 152.808 16.5585C153.307 17.0825 153.683 17.7677 153.948 18.6041C154.213 19.4505 154.345 20.4582 154.345 21.6271V30.6255H150.396ZM166.63 21.1938C166.601 20.7209 166.488 20.2569 166.295 19.8234C166.137 19.4662 165.909 19.144 165.623 18.8762C165.13 18.4243 164.483 18.1725 163.811 18.1708C163.089 18.1837 162.396 18.4517 161.857 18.9265C161.532 19.2135 161.268 19.5619 161.081 19.9513C160.894 20.3406 160.787 20.7631 160.768 21.1938H166.63ZM160.676 24.0052C160.757 25.2849 161.165 26.2119 161.897 26.7762C162.704 27.3701 163.692 27.6724 164.696 27.6327C165.636 27.6316 166.567 27.4609 167.445 27.1289C167.767 27.0026 168.08 26.8545 168.381 26.6855C168.586 26.5698 168.778 26.4312 168.951 26.2724L170.01 29.4566C169.411 29.8577 168.756 30.1701 168.066 30.3836C166.805 30.7662 165.495 30.9631 164.177 30.9681C163.207 30.9714 162.243 30.8113 161.327 30.4945C160.437 30.1871 159.627 29.6881 158.956 29.0334C158.245 28.3282 157.69 27.4839 157.327 26.5545C156.897 25.4287 156.689 24.2313 156.717 23.0277C156.717 21.7379 156.91 20.6093 157.276 19.6218C157.732 18.2681 158.613 17.0939 159.79 16.2709C160.968 15.4479 162.38 15.019 163.821 15.0471C164.749 15.0379 165.67 15.1985 166.539 15.5207C167.363 15.833 168.076 16.3268 168.676 16.9818C169.287 17.6468 169.765 18.5033 170.111 19.5614C170.468 20.6093 170.641 21.8588 170.641 23.3099V24.0052H160.676Z" fill="#FFFFFF"/>
</g>
</g>
<defs>
<clipPath id="clip0_761_3478">
<rect width="172" height="44" rx="22" fill="white"/>
</clipPath>
</defs>
</svg>
