<svg width="164" height="31" viewBox="0 0 164 31" fill="none" xmlns="http://www.w3.org/2000/svg">
<g opacity="0.7">
<g clip-path="url(#clip0_761_3443)">
<path d="M19.6471 15.8993C19.6471 13.1862 17.5352 11.0024 14.9114 11.0024C12.2876 11.0024 10.1758 13.1862 10.1758 15.8993C10.1758 18.0169 11.4557 19.8036 13.2476 20.4654L11.3917 30.5239H18.4312L16.6393 20.4654C18.3672 19.7374 19.6471 18.0169 19.6471 15.8993Z" fill="#6B6B6B"/>
<path d="M29.9498 15.8285C29.9498 7.3582 23.2303 0.476074 14.9749 0.476074C6.7195 0.476074 0 7.3582 0 15.8285C0 21.4533 2.94378 26.3502 7.35945 28.9972L8.31938 22.4459C6.91149 20.8578 6.01555 18.674 6.01555 16.3579C6.01555 11.3287 9.98326 7.22585 14.9109 7.22585C19.8385 7.22585 23.8062 11.3287 23.8062 16.3579C23.8062 18.7402 22.9103 20.8578 21.5024 22.5121L22.4623 29.0634C26.942 26.4164 29.9498 21.4533 29.9498 15.8285ZM49.9803 21.458C52.9881 21.458 55.4199 18.9433 55.4199 15.8993C55.4199 12.8553 52.9881 10.3407 49.9803 10.3407C46.9725 10.3407 44.5407 12.8553 44.5407 15.8993C44.5407 18.9433 46.9725 21.458 49.9803 21.458ZM49.9803 25.9578C44.5407 25.9578 40.125 21.458 40.125 15.8331C40.125 10.2083 44.5407 5.70848 49.9803 5.70848C55.4199 5.70848 59.8356 10.2083 59.8356 15.8331C59.8356 21.458 55.4199 25.9578 49.9803 25.9578ZM61.8834 6.37022V25.4284C61.8834 25.6269 62.0114 25.7593 62.2034 25.7593H65.7231C65.9151 25.7593 66.0431 25.6269 66.0431 25.4284V18.0831H69.8188C69.8188 18.0831 75.0664 17.8184 75.0664 11.995C75.0664 6.1717 69.7548 5.97317 69.7548 5.97317H62.2034C62.0114 5.97317 61.8834 6.10552 61.8834 6.37022ZM68.7309 8.95102C68.7309 8.95102 71.4827 8.88484 71.4827 11.995C71.4827 15.0391 68.7309 15.0391 68.7309 15.0391H65.9791V9.14954C65.9791 8.88484 66.1711 8.95102 66.1711 8.95102H68.7309Z" fill="#6B6B6B"/>
<path d="M128.953 6.37019V25.4284C128.953 25.6269 129.081 25.7593 129.273 25.7593H132.793C132.985 25.7593 133.113 25.6269 133.113 25.4284V18.083H136.889C136.889 18.083 142.136 17.8183 142.136 11.995C142.136 6.17167 136.825 5.97314 136.825 5.97314H129.273C129.145 5.97314 128.953 6.10549 128.953 6.37019ZM135.801 8.95099C135.801 8.95099 138.552 8.88481 138.552 11.995C138.552 15.039 135.801 15.039 135.801 15.039H133.049V9.14951C133.049 8.88481 133.241 8.95099 133.241 8.95099H135.801Z" fill="#6B6B6B"/>
<path d="M77.1797 25.4284C77.1797 25.6269 77.3077 25.7593 77.4997 25.7593H90.2347C90.4267 25.7593 90.5547 25.6269 90.5547 25.4284V22.6491C90.5547 22.4506 90.4267 22.3182 90.2347 22.3182H81.6594C81.4674 22.3182 81.3394 22.1859 81.3394 21.9873V17.5537C81.3394 17.3551 81.4674 17.2228 81.6594 17.2228H87.3549C87.5469 17.2228 87.6749 17.0904 87.6749 16.8919V14.1126C87.6749 13.9141 87.5469 13.7817 87.3549 13.7817H81.6594C81.4674 13.7817 81.3394 13.6494 81.3394 13.4509V9.67892C81.3394 9.4804 81.4674 9.34805 81.6594 9.34805H90.2347C90.4267 9.34805 90.5547 9.2157 90.5547 9.01717V6.23785C90.5547 6.03933 90.4267 5.90698 90.2347 5.90698H77.5637C77.3717 5.90698 77.2437 6.03933 77.2437 6.23785V25.4284H77.1797ZM106.618 5.97316H103.93C103.738 5.97316 103.61 6.1055 103.61 6.30403V18.1492L96.7622 5.97316H93.4345C93.2425 5.97316 93.0505 6.17168 93.0505 6.3702V25.4284C93.0505 25.6269 93.1785 25.7593 93.3705 25.7593H96.0583C96.2503 25.7593 96.3783 25.6269 96.3783 25.4284V11.7303L104.186 25.6931V25.7593H106.554C106.745 25.7593 106.873 25.6269 106.873 25.4284V6.30403C106.873 6.1055 106.745 5.97316 106.618 5.97316Z" fill="#6B6B6B"/>
<path d="M158.326 5.97314H155.638C155.446 5.97314 155.318 6.10549 155.318 6.30402V18.1492L148.47 5.97314H145.143C144.887 5.97314 144.759 6.17167 144.759 6.37019V25.3622C144.759 25.5607 144.887 25.6931 145.079 25.6931H147.766C147.958 25.6931 148.086 25.5607 148.086 25.3622V11.7303L155.958 25.6931V25.7593H158.326C158.518 25.7593 158.646 25.6269 158.646 25.4284V6.30402C158.646 6.10549 158.454 5.97314 158.326 5.97314ZM119.353 25.4946L126.2 6.43637C126.264 6.23784 126.136 5.97314 125.88 5.97314H122.808C122.68 5.97314 122.552 6.03932 122.488 6.17167L118.009 18.6786L113.529 6.17167C113.465 6.03932 113.337 5.97314 113.209 5.97314H110.137C109.945 5.97314 109.753 6.17167 109.817 6.43637L116.665 25.4946C116.729 25.6269 116.857 25.6931 116.985 25.6931H119.033C119.161 25.6931 119.289 25.6269 119.353 25.4946Z" fill="#6B6B6B"/>
<path d="M164 8.02447C164 8.95092 163.296 9.74501 162.336 9.74501C161.376 9.74501 160.672 9.01709 160.672 8.02447C160.672 7.09803 161.44 6.37012 162.336 6.37012C163.296 6.37012 164 7.09803 164 8.02447ZM161.056 8.02447C161.056 8.75239 161.568 9.34796 162.336 9.34796C163.04 9.34796 163.552 8.75239 163.552 8.02447C163.552 7.29656 163.04 6.70099 162.336 6.70099C161.632 6.70099 161.056 7.29656 161.056 8.02447ZM162.08 8.88474H161.696V7.23038C161.824 7.23038 162.08 7.16421 162.336 7.16421C162.656 7.16421 162.784 7.23038 162.912 7.29656C162.976 7.36273 163.04 7.49508 163.04 7.6936C163.04 7.89213 162.912 8.02448 162.72 8.09065C162.848 8.15682 162.976 8.28917 163.04 8.48769C163.104 8.75239 163.104 8.81857 163.168 8.88474H162.784C162.72 8.81857 162.72 8.68622 162.656 8.48769C162.656 8.28917 162.528 8.223 162.336 8.223H162.144V8.88474H162.08ZM162.08 7.9583H162.272C162.464 7.9583 162.656 7.89213 162.656 7.6936C162.656 7.56125 162.528 7.42891 162.336 7.42891H162.144V7.9583H162.08Z" fill="#6B6B6B"/>
</g>
</g>
<defs>
<clipPath id="clip0_761_3443">
<rect width="164" height="31" rx="15.5" fill="white"/>
</clipPath>
</defs>
</svg>
