<svg width="168" height="24" viewBox="0 0 168 24" fill="none" xmlns="http://www.w3.org/2000/svg">
<g opacity="0.7">
<path fill-rule="evenodd" clip-rule="evenodd" d="M83.3041 12.8202H83.545C84.3011 14.0911 85.2627 15.6319 85.778 16.535L89.8683 23.5652C90.8988 23.4982 91.9293 23.3958 92.9598 23.3958C94.0256 23.3958 95.0561 23.4972 96.0866 23.5652L94.7464 21.489C92.6854 18.3757 90.5547 15.2977 88.6639 12.0838C91.8605 11.4135 94.0256 9.3382 94.0256 6.05819C94.0256 3.78183 92.9951 2.27636 91.0365 1.27086C89.5911 0.534414 87.0838 0.601447 85.4692 0.601447H78.1479V23.5652C79.0063 23.4982 79.8666 23.3958 80.725 23.3958C81.5834 23.3958 82.4438 23.4972 83.3022 23.5652V12.8202H83.3041ZM83.3041 2.4095C85.4014 2.4095 87.9775 2.14136 88.5281 4.91955C88.6648 5.62247 88.7002 6.12429 88.7002 6.59353C88.7002 10.0411 86.9136 11.7142 83.3041 11.3809V2.4095ZM11.925 4.91955C11.2377 3.14594 9.93195 2.00823 7.97328 2.00823C5.25753 2.00823 4.19264 3.38056 4.19264 5.28823C4.19264 9.80743 14.6408 8.97044 14.6408 16.6356C14.6408 20.9202 10.8601 24 5.53379 24C3.64299 24 1.61549 23.5652 0 22.5597C0.412955 21.1539 0.790541 19.748 0.996062 18.3086H1.64991C2.16514 20.6194 4.02057 21.9908 6.3922 21.9908C8.52293 21.9908 10.4137 20.8196 10.4137 18.5107C10.4137 13.1554 0.172065 15.0957 0.172065 7.02925C0.172065 3.17946 2.88686 0 8.11093 0C10.5848 0 12.7853 0.904032 13.5415 1.60696C13.1285 2.67764 12.7853 3.78276 12.4412 4.92048L11.925 4.91955ZM28.9537 0.601447C29.8121 0.66848 30.6724 0.769032 31.5308 0.769032C32.3902 0.769032 33.2496 0.66848 34.1089 0.601447V23.5652C33.2496 23.4982 32.3902 23.3958 31.5308 23.3958C30.6724 23.3958 29.8121 23.4972 28.9537 23.5652V0.601447ZM63.1247 0.601447C63.0559 1.06975 62.9527 1.5725 62.9527 2.04081C62.9527 2.50912 63.055 3.01187 63.1247 3.48018C61.0284 3.21204 58.6912 2.94391 55.1859 3.01187V10.2078H58.76C60.3067 10.2078 61.7157 10.0737 62.9871 9.90705C62.9183 10.3754 62.815 10.8772 62.815 11.3464C62.815 11.8157 62.9183 12.3175 62.9871 12.7849C61.5867 12.5919 60.1744 12.4917 58.76 12.4851H55.1859V20.9863C58.6912 20.9537 61.0284 20.7861 63.1247 20.517C63.0559 20.9863 62.9527 21.4881 62.9527 21.9573C62.9527 22.4266 63.055 22.9284 63.1247 23.3958H50.0306V0.601447H63.1247ZM114.706 12.8202H114.947C115.703 14.0911 116.665 15.6319 117.182 16.535L121.27 23.5652C122.301 23.4982 123.331 23.3958 124.363 23.3958C125.427 23.3958 126.46 23.4972 127.49 23.5652L126.15 21.489C124.089 18.3757 121.956 15.2977 120.068 12.0838C123.264 11.4135 125.427 9.3382 125.427 6.05819C125.427 3.78183 124.397 2.27636 122.438 1.27086C120.995 0.534414 118.486 0.601447 116.871 0.601447H109.551V23.5652C110.409 23.4982 111.268 23.3958 112.129 23.3958C112.987 23.3958 113.846 23.4972 114.705 23.5652V12.8202H114.706ZM114.706 2.4095C116.802 2.4095 119.381 2.14136 119.93 4.91955C120.069 5.62247 120.102 6.12429 120.102 6.59353C120.102 10.0411 118.315 11.7142 114.706 11.3809V2.4095ZM144.989 16.5676C144.096 19.1112 143.238 21.1864 142.584 23.4972C142.034 23.4628 141.518 23.3958 140.97 23.3958C140.419 23.3958 139.87 23.4628 139.319 23.4972L149.148 0.299789C150.014 0.433432 150.895 0.433432 151.76 0.299789L161.347 23.5643C160.352 23.4973 159.388 23.3948 158.391 23.3948C157.394 23.3948 156.432 23.4963 155.435 23.5643C154.646 21.0859 153.923 18.8114 152.995 16.5667H144.989V16.5676ZM145.916 14.5259H152.206L149.148 6.7276L145.916 14.5259ZM165.668 20.4751H166.271C166.532 20.4751 166.823 20.572 166.823 20.8988C166.823 21.2674 166.463 21.3028 166.132 21.3028H165.668V21.4611H166.237L166.893 22.4433H167.102L166.449 21.4667C166.76 21.4173 167.012 21.2507 167.012 20.9034C167.012 20.5198 166.796 20.3178 166.301 20.3178H165.482V22.4433H165.669V20.4751H165.668Z" fill="#6B6B6B"/>
<path fill-rule="evenodd" clip-rule="evenodd" d="M166.153 19.5806C166.396 19.5803 166.636 19.6267 166.86 19.717C167.085 19.8073 167.288 19.9398 167.46 20.1069C167.631 20.2739 167.767 20.4723 167.86 20.6907C167.953 20.909 168.001 21.143 168 21.3793C168.001 21.6157 167.953 21.85 167.861 22.0685C167.768 22.2871 167.632 22.4857 167.461 22.653C167.289 22.8202 167.085 22.9529 166.861 23.0433C166.637 23.1337 166.396 23.1802 166.153 23.1799C165.911 23.1803 165.67 23.134 165.445 23.0436C165.221 22.9532 165.017 22.8206 164.845 22.6533C164.674 22.4861 164.537 22.2874 164.445 22.0688C164.352 21.8502 164.304 21.6159 164.305 21.3793C164.305 21.1429 164.353 20.9089 164.445 20.6905C164.538 20.4722 164.675 20.2738 164.846 20.1067C165.018 19.9397 165.222 19.8072 165.446 19.7169C165.67 19.6267 165.911 19.5803 166.153 19.5806L166.157 19.7388C165.205 19.7388 164.494 20.452 164.494 21.3793C164.494 22.2889 165.215 23.0198 166.157 23.0198C167.102 23.0198 167.811 22.2852 167.811 21.3756C167.811 20.4557 167.106 19.7388 166.157 19.7388L166.153 19.5806Z" fill="#6B6B6B"/>
</g>
</svg>
