<svg width="165" height="33" viewBox="0 0 165 33" fill="none" xmlns="http://www.w3.org/2000/svg">
<g clip-path="url(#clip0_761_3473)">
<path d="M55.0721 27.4099H40.8741C40.3963 27.4099 40.0413 27.0453 40.0413 26.5592V24.8028C40.0278 24.3699 40.1641 24.1819 40.4366 23.8439L51.7409 10.5368H40.6687C40.1909 10.5368 39.8359 10.1722 39.8359 9.68611V8.44237C39.8359 7.96956 40.1909 7.59169 40.6687 7.59169H55.0031C55.4809 7.59169 55.8359 7.95627 55.8359 8.44237V10.2387C55.8359 10.5634 55.7265 10.833 55.4809 11.1311L44.1631 24.4781H55.0856C55.5634 24.4781 55.9184 24.8427 55.9184 25.3288V26.5725C55.905 27.0453 55.5499 27.4099 55.0721 27.4099ZM83.0461 27.7745C84.0708 27.7612 84.8211 27.5447 85.107 27.22C85.203 27.0985 85.2567 26.9637 85.2433 26.8289C85.2298 26.7206 85.2298 26.7206 84.9574 25.3971L84.9439 25.3706C84.8902 25.0193 84.6427 24.8712 84.4392 24.8712H84.4124C84.4124 24.8712 84.1533 24.8579 83.9077 24.8579C83.1843 24.8313 82.5837 24.7231 82.5702 23.6559V1.13372C82.5702 0.755854 82.3515 0.377984 81.9159 0.362793H81.7931L79.8127 0.875481C79.4712 0.915356 79.1296 1.15841 79.143 1.60464V23.7053C79.1545 26.3295 80.5342 27.7745 83.0461 27.7745ZM123.128 27.4099H121.353C120.876 27.4099 120.521 27.0453 120.521 26.5592V13.0224C120.494 10.7267 119.811 10.0906 117.381 10.064C114.637 10.064 111.853 10.7666 110.924 11.0229V26.5725C110.924 27.0586 110.596 27.4232 110.132 27.4232H108.33C107.852 27.4232 107.497 27.0586 107.497 26.5725V11.3742C107.47 9.96904 107.606 8.99683 109.571 8.34743C111.456 7.68473 115.073 7.13217 117.462 7.13217C122.008 7.13217 123.961 8.80695 123.961 12.6977V26.5725C123.948 27.0453 123.593 27.4099 123.128 27.4099ZM140.89 10.6184C140.236 10.4438 138.392 10.0241 136.317 10.0241C132.508 10.064 130.912 11.1046 130.869 17.5359C130.91 24.5882 132.986 24.9661 136.357 25.006V25.1541V24.9927C138.461 24.9927 140.262 24.5465 140.903 24.3718V10.6184H140.89ZM141.832 27.1536L141.627 27.2067C140.508 27.4897 138.965 27.896 136.262 27.896H136.248C128.808 27.8827 127.333 24.0737 127.333 17.4942C127.346 9.95575 129.695 7.14546 136.029 7.13217C138.269 7.13217 139.798 7.43029 140.903 7.69992L140.89 1.61983C140.877 1.35019 140.999 0.998906 141.627 0.890671L143.607 0.377984H143.717C144.167 0.391276 144.331 0.797628 144.331 1.14891V23.9806C144.357 25.4104 144.194 26.639 141.832 27.1536ZM156.262 24.9509C151.388 24.9243 151.143 22.3837 151.102 17.5207C151.143 12.6312 151.375 10.0773 156.262 10.0507C161.136 10.0773 161.396 12.6312 161.422 17.5207C161.382 22.3837 161.136 24.9376 156.262 24.9509ZM156.262 7.11888C148.222 7.13217 147.539 12.4964 147.526 17.5207C147.526 22.5318 148.209 27.8694 156.262 27.8827C164.303 27.8694 164.986 22.547 164.999 17.5207C164.986 12.2666 164.305 7.13217 156.262 7.11888ZM100.493 17.629C99.687 17.6423 95.782 17.6973 94.2257 18.0334L94.1029 18.06C92.3548 18.4512 90.977 18.7759 90.9501 21.3963C90.9501 24.706 93.4486 25.0041 96.0007 25.0174C97.5973 25.0174 99.1132 24.7876 100.493 24.3281V17.629ZM103.947 12.8059V23.316C103.987 25.9231 103.319 26.7605 100.725 27.3681C99.591 27.6112 97.8448 27.8808 95.9604 27.8941C93.1895 27.8808 87.4136 27.8808 87.4001 21.5577C87.3867 16.5865 90.3227 15.7073 93.8842 15.1681C96.2195 14.7902 98.5951 14.7351 99.7963 14.7351H100.453V12.9388C100.439 11.7502 100.439 11.0343 99.3473 10.6146C98.6776 10.3317 97.6683 10.195 96.1792 10.195C93.7211 10.195 91.5105 10.7495 90.0502 11.1273L89.4898 11.2622C89.4361 11.2754 89.367 11.2887 89.2845 11.302C89.0255 11.302 88.7376 11.1406 88.6436 10.8026L88.6302 10.7761L88.302 9.08798V8.99304C88.302 8.60187 88.5879 8.35882 88.8624 8.27717C90.0367 7.83094 93.1492 7.12837 96.5073 7.12837C98.952 7.12837 100.725 7.45307 101.913 8.11387C103.96 9.20001 103.947 11.1995 103.947 12.8059ZM71.619 24.3433C70.2393 24.8028 68.7252 25.0326 67.1268 25.0326C64.5746 25.006 62.0762 24.7212 62.0762 21.4115C62.0896 18.7778 63.4693 18.4664 65.229 18.0752L65.3518 18.0486C66.908 17.7106 70.813 17.6442 71.619 17.6442V24.3433ZM73.039 8.11767C71.8512 7.45497 70.0762 7.13217 67.6334 7.13217C64.2753 7.13217 61.1762 7.83474 59.9884 8.28097C59.7294 8.36262 59.4415 8.60567 59.4281 8.99683V9.07848L59.7543 10.7666L59.7677 10.8064C59.8771 11.1444 60.1496 11.3058 60.4086 11.3058C60.4912 11.3058 60.5583 11.2925 60.614 11.266L61.1743 11.1311C62.6346 10.7666 64.8471 10.1988 67.3033 10.1988C68.7905 10.1988 69.8017 10.3336 70.4849 10.6184C71.5767 11.0381 71.5767 11.754 71.5902 12.9426V14.7124H70.9205C69.7192 14.7124 67.3436 14.7655 65.0083 15.1453C61.4449 15.6998 58.4955 16.5637 58.5243 21.5482C58.5243 27.8713 64.2983 27.8846 67.0846 27.8846C68.9689 27.8846 70.7017 27.6017 71.8492 27.3587C74.4436 26.751 75.098 25.9136 75.0711 23.3065V12.8059C75.0596 11.1995 75.0596 9.20001 73.039 8.11767Z" fill="#6B6B6B"/>
<path d="M30.0349 12.9406C27.6996 10.0354 24.4508 7.22697 20.1774 4.68631L20.164 4.67302C15.8771 2.18744 11.8359 0.742415 8.19186 0.148077C5.92562 -0.229793 4.83375 0.201245 4.34251 0.499363C3.85127 0.782291 2.93594 1.52664 2.11657 3.70081C0.805945 7.20038 0.0402973 11.469 0 16.48V16.4933C0.0268648 21.5044 0.805945 25.7882 2.11657 29.2858C2.93594 31.4752 3.85127 32.2044 4.34251 32.5006C4.83375 32.7835 5.92562 33.2297 8.19186 32.8519C11.8378 32.2575 15.8637 30.7992 20.164 28.3136L20.1774 28.3003C24.4508 25.7597 27.6996 22.9513 30.0349 20.0461C31.4818 18.2365 31.6602 17.0611 31.6602 16.4933C31.6602 15.9256 31.4952 14.7521 30.0349 12.9406Z" fill="#6B6B6B"/>
</g>
<defs>
<clipPath id="clip0_761_3473">
<rect width="165" height="33" rx="16.5" fill="#6B6B6B"/>
</clipPath>
</defs>
</svg>
